<svg xmlns="http://www.w3.org/2000/svg" viewBox="0 0 900 560" width="900" height="560"><!-- Ilustración original de Juan David Rodríguez García (generada con herramientas/sketch.py) · CC BY-NC 4.0 --><path d="M449.5,127.2 C449.6,124.6 450.4,117.3 450.4,112.0 C450.4,106.7 449.5,97.9 449.3,95.1 " fill="none" stroke="#2a2a2a" stroke-width="3.0" stroke-linecap="round" stroke-linejoin="round"/><path d="M448.9,125.9 C449.2,123.3 450.5,115.3 450.7,110.1 C450.9,104.9 450.2,97.4 450.1,94.8 " fill="none" stroke="#2a2a2a" stroke-width="1.7" stroke-linecap="round" opacity="0.45"/><path d="M461.6,91.6 C461.9,92.6 461.8,93.1 461.3,94.0 C460.7,94.9 459.3,96.6 458.3,97.2 C457.3,97.9 455.9,97.2 455.2,97.9 C454.5,98.5 454.8,100.8 454.1,101.1 C453.4,101.5 452.3,100.5 451.0,100.1 C449.7,99.6 447.8,99.3 446.4,98.4 C445.0,97.5 443.0,96.3 442.5,94.7 C441.9,93.2 443.0,90.6 443.1,89.3 C443.2,88.1 442.6,88.1 442.9,87.2 C443.3,86.3 444.1,84.9 445.2,84.0 C446.3,83.1 448.5,82.2 449.6,81.8 C450.6,81.4 450.5,81.6 451.4,81.6 C452.4,81.5 454.2,81.0 455.2,81.4 C456.3,81.7 457.0,82.5 457.7,83.7 C458.4,84.8 458.8,86.8 459.5,88.1 C460.1,89.4 461.3,90.6 461.6,91.6 Z" fill="#f0645a" stroke="none" opacity="1.0"/><path d="M460.3,88.4 C460.5,89.6 459.9,92.3 459.0,93.3 C458.2,94.4 456.0,93.8 455.2,94.6 C454.4,95.4 454.9,97.7 454.2,98.1 C453.4,98.6 452.0,97.2 450.7,97.2 C449.4,97.2 447.4,98.4 446.4,98.2 C445.4,98.1 445.6,97.1 444.6,96.2 C443.7,95.3 441.4,94.1 440.7,92.9 C440.0,91.7 440.5,90.2 440.5,89.1 C440.5,88.0 440.1,87.3 440.7,86.2 C441.3,85.1 443.0,83.6 443.9,82.7 C444.8,81.7 444.9,81.0 446.0,80.5 C447.1,80.0 449.3,79.8 450.5,79.8 C451.8,79.9 452.5,80.6 453.4,80.9 C454.3,81.2 455.3,80.8 456.0,81.7 C456.7,82.5 457.1,84.8 457.8,86.0 C458.5,87.1 460.1,87.2 460.3,88.4 Z" fill="none" stroke="#2a2a2a" stroke-width="3.0" stroke-linecap="round" stroke-linejoin="round"/><path d="M457.9,87.7 C457.4,88.8 457.3,91.4 457.1,92.8 C456.8,94.1 457.4,94.9 456.5,95.6 C455.7,96.4 453.0,97.0 451.9,97.1 C450.8,97.3 451.0,96.3 449.8,96.6 C448.7,96.9 446.2,99.3 445.0,99.0 C443.7,98.7 443.1,95.9 442.4,94.8 C441.7,93.7 441.1,93.5 440.6,92.4 C440.1,91.3 439.3,89.5 439.4,88.5 C439.5,87.4 440.7,87.3 441.1,86.2 C441.6,85.0 441.1,82.3 442.0,81.6 C442.9,80.8 445.2,82.2 446.6,81.8 C448.0,81.5 449.1,79.9 450.4,79.5 C451.7,79.2 453.6,79.3 454.3,79.7 C455.0,80.1 453.9,81.1 454.8,82.2 C455.8,83.3 459.5,85.4 460.0,86.3 C460.5,87.2 458.4,86.7 457.9,87.7 Z" fill="none" stroke="#2a2a2a" stroke-width="1.7" stroke-linecap="round" opacity="0.45"/><path d="M417.3,252.5 C425.6,250.3 442.2,251.1 453.8,250.9 C465.5,250.7 479.5,248.9 487.1,251.2 C494.8,253.6 497.7,256.2 499.8,265.0 C501.9,273.8 499.8,291.1 499.7,304.1 C499.5,317.2 501.4,334.1 499.0,343.2 C496.6,352.3 492.9,356.5 485.2,358.6 C477.5,360.7 463.9,356.1 452.9,355.7 C441.9,355.3 427.4,358.4 419.3,356.4 C411.1,354.4 406.7,352.6 404.1,343.8 C401.5,335.1 403.6,317.1 403.6,303.9 C403.5,290.7 401.7,273.0 404.0,264.4 C406.2,255.8 409.0,254.8 417.3,252.5 Z" fill="#8ccbf2" stroke="none" opacity="1.0"/><path d="M416.6,248.9 C424.6,246.6 439.6,249.0 450.8,249.1 C462.0,249.2 476.1,247.2 483.8,249.5 C491.6,251.8 494.8,254.1 497.2,262.9 C499.5,271.7 497.6,289.2 498.0,302.6 C498.3,315.9 501.7,333.9 499.2,342.8 C496.7,351.6 491.6,353.4 483.2,355.7 C474.9,357.9 460.4,356.2 449.1,356.3 C437.8,356.5 423.2,359.1 415.3,356.5 C407.4,353.9 404.3,349.8 401.8,340.7 C399.3,331.6 400.4,315.1 400.5,302.1 C400.6,289.1 399.9,271.8 402.6,263.0 C405.3,254.1 408.5,251.2 416.6,248.9 Z" fill="none" stroke="#2a2a2a" stroke-width="3.4" stroke-linecap="round" stroke-linejoin="round"/><path d="M415.6,249.4 C423.7,247.4 438.2,250.6 449.5,250.8 C460.8,251.0 475.1,248.1 483.3,250.5 C491.6,252.9 496.4,256.3 498.9,265.3 C501.4,274.2 498.5,291.3 498.4,304.1 C498.2,316.9 500.4,333.1 498.1,341.8 C495.8,350.6 492.5,354.7 484.7,356.7 C476.9,358.8 463.0,354.5 451.3,354.3 C439.6,354.1 422.6,357.8 414.5,355.7 C406.4,353.6 405.0,350.3 402.7,341.7 C400.5,333.1 401.3,317.5 401.0,304.3 C400.7,291.0 398.6,271.6 401.0,262.4 C403.5,253.3 407.6,251.3 415.6,249.4 Z" fill="none" stroke="#2a2a2a" stroke-width="1.9" stroke-linecap="round" opacity="0.45"/><path d="M433.8,279.9 C438.1,278.8 447.3,279.7 453.4,280.2 C459.5,280.7 466.3,281.7 470.3,283.1 C474.3,284.6 476.6,286.6 477.4,288.9 C478.2,291.2 475.3,294.2 475.2,297.1 C475.1,300.0 477.9,303.8 476.8,306.4 C475.7,309.0 473.0,311.9 468.7,312.6 C464.4,313.3 456.2,311.1 451.0,310.9 C445.8,310.7 441.1,312.2 437.4,311.5 C433.7,310.8 430.0,309.5 428.6,306.7 C427.3,303.9 429.5,298.1 429.3,294.7 C429.2,291.4 426.9,289.2 427.7,286.8 C428.4,284.3 429.5,281.0 433.8,279.9 Z" fill="#fffdf6" stroke="none" opacity="1.0"/><path d="M432.6,280.7 C436.3,280.0 443.5,280.7 449.4,280.5 C455.3,280.3 463.7,278.5 467.8,279.5 C472.0,280.5 473.3,283.9 474.2,286.3 C475.0,288.8 473.2,291.0 473.0,294.1 C472.7,297.1 473.9,302.1 472.9,304.6 C471.9,307.0 471.0,308.0 467.1,308.9 C463.2,309.7 455.5,309.4 449.7,309.5 C443.9,309.7 436.2,310.6 432.3,309.8 C428.3,308.9 426.9,307.1 425.9,304.4 C424.9,301.7 426.0,296.9 426.2,293.7 C426.5,290.5 426.2,287.4 427.2,285.2 C428.3,283.1 428.9,281.5 432.6,280.7 Z" fill="none" stroke="#2a2a2a" stroke-width="2.6" stroke-linecap="round" stroke-linejoin="round"/><path d="M434.3,279.7 C438.4,278.9 444.8,280.7 450.1,280.8 C455.4,281.0 462.1,279.8 466.0,280.5 C469.9,281.3 472.1,283.4 473.5,285.5 C474.9,287.5 474.4,290.2 474.5,293.0 C474.7,295.9 475.3,299.8 474.2,302.4 C473.2,305.0 472.4,307.2 468.1,308.4 C463.9,309.6 454.1,309.5 448.5,309.6 C442.9,309.7 438.0,309.7 434.4,308.8 C430.8,307.8 428.3,306.3 427.0,304.0 C425.6,301.6 426.4,297.8 426.1,294.8 C425.9,291.7 424.0,288.0 425.4,285.5 C426.7,283.0 430.2,280.5 434.3,279.7 Z" fill="none" stroke="#2a2a2a" stroke-width="1.4" stroke-linecap="round" opacity="0.45"/><circle cx="441.1" cy="294.5" r="3.2" fill="#2a2a2a"/><circle cx="458.9" cy="294.1" r="3.2" fill="#f0645a"/><path d="M402.1,284.1 C397.1,283.1 382.5,280.1 372.1,277.9 C361.8,275.8 345.2,272.5 339.9,271.4 " fill="none" stroke="#2a2a2a" stroke-width="3.4" stroke-linecap="round" stroke-linejoin="round"/><path d="M403.0,285.3 C397.9,284.1 382.5,280.3 372.2,278.0 C362.0,275.6 346.6,272.2 341.4,271.0 " fill="none" stroke="#2a2a2a" stroke-width="1.9" stroke-linecap="round" opacity="0.45"/><path d="M498.5,283.8 C503.4,282.8 517.8,280.3 528.0,277.9 C538.1,275.5 554.2,270.9 559.5,269.5 " fill="none" stroke="#2a2a2a" stroke-width="3.4" stroke-linecap="round" stroke-linejoin="round"/><path d="M498.7,284.6 C503.7,283.6 518.5,280.7 528.8,278.2 C539.1,275.8 555.1,271.5 560.4,270.1 " fill="none" stroke="#2a2a2a" stroke-width="1.9" stroke-linecap="round" opacity="0.45"/><path d="M351.2,273.5 C351.1,274.6 349.8,273.9 349.2,275.0 C348.5,276.0 348.5,278.9 347.3,279.7 C346.2,280.5 343.8,279.6 342.2,279.8 C340.7,280.0 339.3,280.5 338.1,281.0 C336.9,281.5 336.3,282.9 335.1,282.7 C333.9,282.6 332.0,281.5 331.1,280.1 C330.2,278.7 329.5,276.0 329.5,274.3 C329.5,272.6 331.4,271.1 331.3,269.6 C331.2,268.2 328.9,266.7 328.9,265.6 C328.8,264.6 330.0,264.3 330.9,263.5 C331.9,262.6 333.5,260.8 334.6,260.5 C335.8,260.2 336.4,261.7 337.6,261.8 C338.8,261.8 340.4,260.1 342.0,260.7 C343.6,261.4 346.0,264.2 347.3,265.5 C348.7,266.7 349.4,267.1 350.1,268.4 C350.7,269.8 351.4,272.4 351.2,273.5 Z" fill="#dedad0" stroke="none" opacity="1.0"/><path d="M348.1,270.3 C348.3,271.6 348.5,271.4 347.7,272.5 C346.9,273.6 344.6,275.9 343.5,277.0 C342.4,278.1 342.4,278.6 341.4,278.9 C340.4,279.3 338.9,278.9 337.6,278.9 C336.4,278.9 335.2,279.3 333.9,278.8 C332.5,278.2 330.6,276.6 329.5,275.8 C328.4,274.9 327.7,274.6 327.3,273.6 C326.9,272.7 327.1,271.5 327.1,270.2 C327.1,268.8 327.0,266.9 327.3,265.6 C327.7,264.3 328.3,263.1 329.1,262.3 C330.0,261.5 330.9,261.3 332.4,260.7 C333.9,260.0 336.5,258.7 338.1,258.4 C339.7,258.2 341.0,258.7 342.0,259.1 C343.0,259.5 343.3,260.1 344.1,261.0 C344.9,262.0 346.1,263.1 346.8,264.7 C347.5,266.2 348.0,269.0 348.1,270.3 Z" fill="none" stroke="#2a2a2a" stroke-width="3.0" stroke-linecap="round" stroke-linejoin="round"/><path d="M348.3,269.9 C348.1,271.2 347.4,273.0 346.6,274.0 C345.8,275.1 344.6,275.6 343.7,276.1 C342.7,276.7 341.8,276.9 340.9,277.2 C340.0,277.6 339.7,277.9 338.2,278.3 C336.8,278.8 333.3,280.3 332.0,279.9 C330.8,279.6 331.5,277.5 330.8,276.2 C330.0,274.9 328.4,273.4 327.5,272.2 C326.6,271.1 325.4,270.7 325.3,269.3 C325.2,267.9 326.0,265.4 327.0,263.9 C328.0,262.4 330.5,260.8 331.5,260.3 C332.4,259.8 331.7,261.1 332.8,260.7 C333.8,260.2 336.2,257.8 337.8,257.7 C339.3,257.6 340.9,259.0 342.1,260.0 C343.3,261.0 344.0,262.5 345.0,263.5 C346.0,264.5 347.4,264.9 348.0,266.0 C348.5,267.0 348.6,268.5 348.3,269.9 Z" fill="none" stroke="#2a2a2a" stroke-width="1.7" stroke-linecap="round" opacity="0.45"/><path d="M576.6,271.3 C576.5,272.9 575.5,274.9 574.9,276.3 C574.4,277.6 574.1,278.8 573.3,279.6 C572.6,280.5 571.8,281.1 570.4,281.2 C569.1,281.4 567.0,280.6 565.3,280.5 C563.6,280.4 561.5,280.7 560.3,280.7 C559.1,280.7 559.3,281.5 558.2,280.5 C557.1,279.4 554.2,276.0 553.8,274.5 C553.4,273.0 555.2,272.7 555.8,271.3 C556.3,269.9 556.4,267.4 557.0,266.1 C557.5,264.9 558.0,264.9 558.8,263.9 C559.6,262.9 560.6,260.4 561.5,260.1 C562.5,259.8 563.3,261.8 564.7,262.2 C566.2,262.5 569.1,262.1 570.3,262.1 C571.6,262.2 571.4,261.5 572.3,262.3 C573.1,263.2 574.8,265.7 575.5,267.2 C576.3,268.7 576.7,269.8 576.6,271.3 Z" fill="#dedad0" stroke="none" opacity="1.0"/><path d="M573.6,269.8 C573.5,271.5 572.8,272.9 572.0,274.2 C571.3,275.5 570.2,276.8 569.1,277.8 C568.0,278.8 566.5,279.8 565.4,280.1 C564.4,280.4 563.7,279.8 562.8,279.6 C561.9,279.4 561.1,279.6 559.9,279.0 C558.7,278.4 556.7,276.8 555.7,275.9 C554.7,275.0 554.4,274.6 553.8,273.4 C553.1,272.2 551.9,269.7 551.7,268.6 C551.6,267.4 552.2,267.6 552.9,266.5 C553.7,265.4 555.4,263.1 556.1,262.1 C556.9,261.1 556.7,261.0 557.7,260.6 C558.6,260.1 560.4,259.5 561.9,259.6 C563.4,259.6 565.7,260.5 566.9,261.0 C568.1,261.5 568.2,262.2 569.2,262.8 C570.2,263.3 572.1,263.1 572.8,264.3 C573.5,265.5 573.7,268.2 573.6,269.8 Z" fill="none" stroke="#2a2a2a" stroke-width="3.0" stroke-linecap="round" stroke-linejoin="round"/><path d="M573.3,268.9 C573.3,270.4 573.4,273.6 572.9,274.9 C572.5,276.2 571.6,276.1 570.5,276.7 C569.5,277.2 568.1,277.9 566.8,278.2 C565.4,278.5 563.7,278.5 562.5,278.4 C561.3,278.3 560.7,277.9 559.6,277.5 C558.5,277.1 556.8,276.8 555.8,275.9 C554.7,274.9 554.1,272.6 553.3,271.6 C552.4,270.6 550.7,270.7 550.8,269.9 C550.9,269.1 553.0,267.8 553.9,266.7 C554.7,265.7 555.2,264.9 555.9,263.8 C556.5,262.7 556.4,261.2 557.6,260.2 C558.8,259.2 561.7,258.1 563.1,257.9 C564.4,257.7 564.5,258.2 565.7,259.0 C566.9,259.9 568.9,261.9 570.2,263.1 C571.4,264.2 572.5,264.7 573.0,265.7 C573.5,266.6 573.3,267.4 573.3,268.9 Z" fill="none" stroke="#2a2a2a" stroke-width="1.7" stroke-linecap="round" opacity="0.45"/><path d="M426.1,356.1 C426.2,358.2 426.8,364.2 427.0,368.7 C427.2,373.1 427.2,380.3 427.3,382.6 " fill="none" stroke="#2a2a2a" stroke-width="3.4" stroke-linecap="round" stroke-linejoin="round"/><path d="M426.4,355.4 C426.6,357.6 427.7,363.7 427.8,368.2 C427.8,372.7 427.0,380.0 426.8,382.4 " fill="none" stroke="#2a2a2a" stroke-width="1.9" stroke-linecap="round" opacity="0.45"/><path d="M473.4,356.3 C473.2,358.6 472.6,365.5 472.5,369.9 C472.4,374.3 472.8,380.5 472.9,382.6 " fill="none" stroke="#2a2a2a" stroke-width="3.4" stroke-linecap="round" stroke-linejoin="round"/><path d="M472.3,355.7 C472.6,358.0 474.1,365.0 473.9,369.7 C473.8,374.4 471.9,381.7 471.5,384.1 " fill="none" stroke="#2a2a2a" stroke-width="1.9" stroke-linecap="round" opacity="0.45"/><path d="M418.7,382.6 C420.9,381.4 424.0,382.8 427.4,382.7 C430.7,382.6 436.6,380.9 439.0,382.0 C441.5,383.1 441.2,388.3 441.9,389.4 C442.6,390.4 442.6,388.0 443.1,388.2 C443.6,388.3 445.7,388.7 444.8,390.2 C443.9,391.7 440.4,395.8 437.8,397.2 C435.1,398.5 432.4,398.3 429.0,398.2 C425.5,398.2 419.5,398.1 417.2,397.0 C414.8,395.9 415.3,392.8 414.9,391.6 C414.4,390.4 414.3,390.0 414.2,389.7 C414.1,389.4 413.5,390.8 414.2,389.7 C415.0,388.5 416.5,383.8 418.7,382.6 Z" fill="#dedad0" stroke="none" opacity="1.0"/><path d="M415.5,381.5 C418.0,380.6 422.0,381.8 425.5,381.8 C429.0,381.9 433.7,381.0 436.4,381.8 C439.1,382.5 440.8,385.3 441.7,386.1 C442.6,387.0 442.0,386.5 441.9,387.0 C441.8,387.4 442.0,387.3 441.0,388.7 C440.0,390.0 438.6,394.0 436.0,395.1 C433.4,396.3 428.7,395.6 425.3,395.4 C422.0,395.3 418.2,394.9 415.7,394.0 C413.2,393.0 411.0,391.1 410.2,389.9 C409.3,388.7 410.6,387.2 410.6,386.7 C410.7,386.2 409.6,387.9 410.4,387.0 C411.2,386.2 413.0,382.3 415.5,381.5 Z" fill="none" stroke="#2a2a2a" stroke-width="2.8" stroke-linecap="round" stroke-linejoin="round"/><path d="M415.8,381.5 C418.5,380.3 422.2,379.7 425.6,379.5 C429.0,379.2 433.9,378.8 436.2,379.9 C438.5,381.1 438.7,385.3 439.5,386.3 C440.4,387.3 440.9,385.9 441.4,386.2 C441.9,386.5 443.4,386.8 442.3,388.1 C441.2,389.4 437.3,392.9 434.7,394.1 C432.1,395.4 429.8,395.5 426.8,395.5 C423.9,395.6 419.1,395.6 416.7,394.5 C414.3,393.3 413.0,389.8 412.3,388.5 C411.6,387.1 412.9,386.6 412.4,386.3 C412.0,386.0 409.2,387.5 409.7,386.7 C410.3,385.9 413.2,382.7 415.8,381.5 Z" fill="none" stroke="#2a2a2a" stroke-width="1.5" stroke-linecap="round" opacity="0.45"/><path d="M467.7,383.6 C470.2,383.2 472.5,384.6 475.7,384.3 C478.8,384.0 484.3,380.9 486.7,381.8 C489.1,382.7 489.5,388.6 490.1,389.8 C490.6,390.9 489.7,388.2 489.9,388.7 C490.1,389.3 491.4,391.7 491.0,393.2 C490.7,394.8 490.2,397.7 487.9,398.0 C485.6,398.3 480.5,395.2 477.2,394.8 C473.8,394.4 469.9,395.7 467.6,395.5 C465.3,395.3 464.7,394.3 463.4,393.5 C462.2,392.7 460.5,391.9 460.0,390.7 C459.6,389.5 459.4,387.6 460.7,386.4 C462.0,385.2 465.2,383.9 467.7,383.6 Z" fill="#dedad0" stroke="none" opacity="1.0"/><path d="M465.1,380.8 C467.5,380.0 470.7,381.1 473.7,381.0 C476.6,381.0 480.4,379.8 483.1,380.7 C485.7,381.7 488.6,385.4 489.5,386.8 C490.3,388.1 488.4,388.4 488.2,388.7 C488.0,389.1 488.9,388.1 488.2,389.0 C487.4,389.9 486.2,392.9 483.7,393.9 C481.2,394.9 476.5,395.1 473.2,395.1 C469.9,395.1 466.3,395.0 464.0,394.0 C461.6,392.9 460.0,389.6 459.2,388.8 C458.5,388.0 459.7,389.4 459.6,388.9 C459.6,388.4 458.2,387.1 459.1,385.7 C460.0,384.4 462.7,381.5 465.1,380.8 Z" fill="none" stroke="#2a2a2a" stroke-width="2.8" stroke-linecap="round" stroke-linejoin="round"/><path d="M463.9,380.5 C466.1,379.3 470.6,379.6 473.9,379.8 C477.1,380.0 480.9,380.8 483.4,381.5 C485.9,382.3 488.3,383.2 489.0,384.4 C489.8,385.7 488.0,387.9 487.9,388.9 C487.8,390.0 489.2,389.8 488.6,390.8 C488.0,391.8 487.0,394.4 484.5,395.1 C482.0,395.8 477.1,395.0 473.7,395.0 C470.2,394.9 466.1,395.9 463.9,394.8 C461.8,393.7 461.6,389.3 460.7,388.4 C459.7,387.4 458.2,389.4 458.2,389.2 C458.2,388.9 459.7,388.4 460.6,387.0 C461.6,385.5 461.7,381.6 463.9,380.5 Z" fill="none" stroke="#2a2a2a" stroke-width="1.5" stroke-linecap="round" opacity="0.45"/><path d="M418.1,130.7 C428.3,126.6 441.4,130.6 453.3,130.8 C465.3,130.9 479.8,127.5 489.6,131.8 C499.5,136.1 508.7,146.6 512.3,156.3 C515.8,166.0 510.9,178.8 511.2,190.0 C511.4,201.1 517.5,213.5 513.7,223.0 C509.8,232.5 498.5,242.8 488.1,246.7 C477.7,250.6 463.0,246.0 451.3,246.4 C439.6,246.8 427.8,253.0 418.0,249.0 C408.1,245.0 396.5,232.0 392.2,222.4 C387.9,212.7 392.1,202.3 392.1,191.1 C392.0,179.9 387.5,165.1 391.8,155.0 C396.1,144.9 407.8,134.7 418.1,130.7 Z" fill="#8ccbf2" stroke="none" opacity="1.0"/><path d="M413.8,129.2 C423.6,125.2 437.1,129.2 449.2,129.6 C461.2,129.9 476.2,127.2 486.2,131.2 C496.2,135.3 505.2,144.5 509.2,153.7 C513.2,162.9 510.1,175.3 510.0,186.6 C509.9,197.9 512.9,211.7 508.8,221.4 C504.8,231.1 495.6,241.1 485.7,244.8 C475.9,248.6 461.8,244.1 449.8,244.0 C437.8,244.0 423.7,248.4 413.6,244.4 C403.6,240.4 393.4,229.8 389.6,220.2 C385.8,210.5 390.9,197.7 391.0,186.5 C391.0,175.4 386.2,163.0 390.0,153.4 C393.8,143.9 403.9,133.2 413.8,129.2 Z" fill="none" stroke="#2a2a2a" stroke-width="3.4" stroke-linecap="round" stroke-linejoin="round"/><path d="M413.2,131.1 C423.3,127.4 439.5,131.9 451.5,131.8 C463.6,131.6 475.6,126.8 485.2,130.3 C494.9,133.8 505.5,143.2 509.6,152.8 C513.6,162.4 509.6,176.5 509.5,188.1 C509.5,199.6 513.4,212.8 509.5,222.2 C505.5,231.6 495.3,240.6 485.6,244.5 C475.9,248.4 463.4,245.1 451.3,245.4 C439.3,245.8 423.6,250.5 413.4,246.6 C403.2,242.6 394.0,231.2 390.1,221.5 C386.3,211.9 390.0,200.2 390.1,188.9 C390.2,177.6 387.1,163.6 391.0,154.0 C394.8,144.4 403.1,134.8 413.2,131.1 Z" fill="none" stroke="#2a2a2a" stroke-width="1.9" stroke-linecap="round" opacity="0.45"/><path d="M443.5,179.0 C443.1,180.8 440.9,182.0 440.3,183.5 C439.7,184.9 440.8,186.8 439.9,187.8 C439.0,188.8 436.6,188.6 434.8,189.3 C433.0,190.0 430.5,191.4 429.0,192.0 C427.6,192.6 427.4,193.5 426.2,192.7 C425.0,191.9 422.7,188.6 421.6,187.4 C420.4,186.1 420.4,186.8 419.3,185.3 C418.3,183.7 415.5,180.3 415.2,178.2 C415.0,176.0 417.1,174.0 417.9,172.5 C418.7,171.0 418.9,170.4 419.9,169.2 C420.8,168.1 422.4,166.5 423.6,165.6 C424.8,164.8 425.2,164.6 427.2,164.3 C429.3,163.9 434.2,162.5 435.9,163.4 C437.5,164.4 435.7,168.3 436.9,169.9 C438.1,171.6 441.8,171.7 442.9,173.3 C444.0,174.8 444.0,177.3 443.5,179.0 Z" fill="#fffdf6" stroke="none" opacity="1.0"/><path d="M439.2,175.6 C439.4,177.2 439.7,180.1 439.1,182.0 C438.5,183.8 437.0,185.5 435.6,186.7 C434.2,187.8 432.1,188.0 430.8,188.7 C429.4,189.4 429.0,190.8 427.5,191.0 C426.1,191.1 423.5,190.4 422.1,189.6 C420.7,188.8 420.3,187.6 419.0,186.1 C417.8,184.6 415.2,182.4 414.5,180.7 C413.8,179.1 414.6,177.8 414.8,176.1 C414.9,174.3 414.5,171.9 415.2,170.2 C416.0,168.4 418.2,166.7 419.4,165.6 C420.7,164.5 421.4,164.4 422.5,163.7 C423.7,163.1 424.7,161.8 426.2,161.7 C427.8,161.6 430.3,162.3 431.7,162.9 C433.2,163.6 433.9,164.1 434.9,165.6 C435.9,167.2 437.0,170.5 437.7,172.2 C438.4,173.8 438.9,173.9 439.2,175.6 Z" fill="none" stroke="#2a2a2a" stroke-width="3.0" stroke-linecap="round" stroke-linejoin="round"/><path d="M438.7,177.5 C438.5,179.7 439.5,182.0 439.0,183.3 C438.5,184.6 437.0,184.4 435.6,185.4 C434.2,186.4 431.7,188.5 430.3,189.4 C429.0,190.3 428.4,190.9 427.3,190.6 C426.1,190.3 425.0,188.2 423.5,187.6 C422.1,186.9 419.7,187.8 418.6,186.7 C417.5,185.6 417.3,182.8 416.9,180.8 C416.4,178.9 416.0,176.5 415.8,174.9 C415.6,173.2 415.0,172.3 415.5,170.7 C415.9,169.1 417.4,166.3 418.4,165.0 C419.5,163.7 420.5,163.4 421.8,162.9 C423.2,162.4 425.0,162.2 426.5,162.1 C427.9,162.0 429.1,161.2 430.6,162.2 C432.2,163.2 434.2,166.7 435.8,168.0 C437.3,169.3 439.5,168.5 440.0,170.1 C440.5,171.6 438.8,175.3 438.7,177.5 Z" fill="none" stroke="#2a2a2a" stroke-width="1.7" stroke-linecap="round" opacity="0.45"/><path d="M487.7,177.4 C487.9,179.7 489.1,183.1 488.6,185.0 C488.2,186.9 486.5,187.8 484.9,188.6 C483.3,189.4 481.0,189.2 479.2,189.8 C477.4,190.5 475.1,192.1 474.0,192.4 C472.9,192.8 473.8,192.4 472.6,191.8 C471.5,191.3 468.7,190.7 467.2,189.3 C465.6,187.8 464.3,184.8 463.4,183.1 C462.6,181.5 461.7,181.2 461.9,179.5 C462.1,177.7 463.8,174.1 464.7,172.6 C465.7,171.0 467.0,171.4 467.6,170.0 C468.3,168.7 467.5,165.2 468.8,164.4 C470.0,163.6 473.3,165.1 475.1,165.2 C476.9,165.4 477.7,164.8 479.4,165.3 C481.1,165.7 483.8,166.8 485.2,167.8 C486.6,168.8 487.4,169.6 487.8,171.2 C488.3,172.8 487.6,175.1 487.7,177.4 Z" fill="#fffdf6" stroke="none" opacity="1.0"/><path d="M485.4,176.7 C485.8,178.4 486.2,179.6 485.7,181.1 C485.2,182.7 483.8,184.9 482.5,186.2 C481.1,187.5 479.4,188.6 477.7,189.0 C476.1,189.5 474.1,189.0 472.7,189.1 C471.3,189.2 470.9,190.2 469.5,189.8 C468.1,189.3 465.8,188.0 464.4,186.5 C462.9,185.0 461.5,182.4 460.8,180.6 C460.2,178.9 460.3,177.7 460.4,176.1 C460.6,174.6 461.3,173.0 461.9,171.4 C462.4,169.7 462.7,167.3 463.8,166.1 C464.9,165.0 467.0,165.0 468.5,164.4 C470.0,163.8 471.1,162.6 472.9,162.6 C474.6,162.6 477.5,163.6 478.9,164.5 C480.2,165.4 480.2,166.7 481.0,167.8 C481.8,168.9 483.0,169.6 483.7,171.0 C484.5,172.5 485.1,175.0 485.4,176.7 Z" fill="none" stroke="#2a2a2a" stroke-width="3.0" stroke-linecap="round" stroke-linejoin="round"/><path d="M485.6,178.0 C485.5,179.4 484.3,178.3 483.9,179.6 C483.6,180.9 484.7,184.1 483.6,185.7 C482.5,187.2 479.1,188.4 477.2,188.9 C475.4,189.4 473.8,188.5 472.4,188.4 C471.0,188.3 470.1,188.3 468.7,188.2 C467.3,188.0 465.0,188.8 464.0,187.6 C463.0,186.3 463.6,182.9 462.9,180.7 C462.2,178.6 460.0,176.8 459.8,174.9 C459.6,173.0 461.4,170.6 461.9,169.4 C462.4,168.2 461.7,168.6 462.8,167.8 C463.9,167.1 466.7,165.9 468.2,164.8 C469.7,163.7 470.1,161.4 471.7,161.3 C473.4,161.2 476.6,163.2 478.2,164.1 C479.7,165.0 479.9,165.5 481.0,166.6 C482.2,167.8 484.1,169.0 484.9,170.9 C485.7,172.8 485.8,176.5 485.6,178.0 Z" fill="none" stroke="#2a2a2a" stroke-width="1.7" stroke-linecap="round" opacity="0.45"/><circle cx="429.1" cy="176.1" r="4.0" fill="#2a2a2a"/><circle cx="474.8" cy="175.7" r="4.0" fill="#2a2a2a"/><path d="M423.6,213.9 C427.9,216.5 440.9,229.5 449.3,229.6 C457.8,229.6 470.1,216.6 474.3,214.0 " fill="none" stroke="#2a2a2a" stroke-width="3.2" stroke-linecap="round" stroke-linejoin="round"/><path d="M423.0,214.1 C427.5,216.9 441.2,231.1 450.1,230.6 C459.1,230.1 472.3,214.5 476.7,211.2 " fill="none" stroke="#2a2a2a" stroke-width="1.8" stroke-linecap="round" opacity="0.45"/><path d="M64.7,125.5 L76.2,109.6 L145.6,53.6 L162.6,67.5 L96.1,124.8 Z" fill="#ffd95a" stroke="none"/><path d="M63.8,125.5 C64.7,123.9 67.2,118.6 69.1,115.4 C71.1,112.2 74.3,107.7 75.3,106.2 " fill="none" stroke="#2a2a2a" stroke-width="3.0" stroke-linecap="round" stroke-linejoin="round"/><path d="M63.4,125.9 C64.7,124.2 69.2,119.0 71.3,115.9 C73.3,112.8 74.8,108.9 75.5,107.5 " fill="none" stroke="#2a2a2a" stroke-width="1.7" stroke-linecap="round" opacity="0.45"/><path d="M76.5,105.1 C82.2,100.5 99.7,86.8 110.8,77.6 C122.0,68.5 138.1,54.9 143.6,50.4 " fill="none" stroke="#2a2a2a" stroke-width="3.0" stroke-linecap="round" stroke-linejoin="round"/><path d="M75.1,106.1 C81.2,101.3 99.8,86.6 111.4,77.4 C123.0,68.2 139.4,55.3 145.0,50.9 " fill="none" stroke="#2a2a2a" stroke-width="1.7" stroke-linecap="round" opacity="0.45"/><path d="M143.7,52.0 C145.1,52.9 149.7,55.4 152.3,57.5 C154.9,59.6 158.0,63.4 159.1,64.6 " fill="none" stroke="#2a2a2a" stroke-width="3.0" stroke-linecap="round" stroke-linejoin="round"/><path d="M145.0,52.2 C146.2,53.1 149.8,55.3 151.8,57.4 C153.8,59.4 156.1,63.4 156.9,64.6 " fill="none" stroke="#2a2a2a" stroke-width="1.7" stroke-linecap="round" opacity="0.45"/><path d="M158.5,64.2 C152.9,68.9 136.4,82.7 125.1,92.4 C113.9,102.0 96.7,117.2 91.1,122.2 " fill="none" stroke="#2a2a2a" stroke-width="3.0" stroke-linecap="round" stroke-linejoin="round"/><path d="M158.2,65.3 C152.6,69.9 135.1,83.4 124.1,92.8 C113.1,102.1 97.6,116.7 92.3,121.5 " fill="none" stroke="#2a2a2a" stroke-width="1.7" stroke-linecap="round" opacity="0.45"/><path d="M90.8,122.5 C88.6,122.6 81.8,123.0 77.5,123.5 C73.2,124.1 67.1,125.2 65.0,125.5 " fill="none" stroke="#2a2a2a" stroke-width="3.0" stroke-linecap="round" stroke-linejoin="round"/><path d="M92.5,123.7 C90.2,123.5 83.2,123.0 78.7,122.9 C74.2,122.9 67.6,123.3 65.3,123.3 " fill="none" stroke="#2a2a2a" stroke-width="1.7" stroke-linecap="round" opacity="0.45"/><path d="M65.3,126.5 L76.5,108.5 L94.3,123.0 Z" fill="#ff9bb0" stroke="none"/><path d="M64.5,123.6 C65.4,122.1 67.7,117.8 69.7,114.8 C71.7,111.8 75.3,106.9 76.5,105.3 " fill="none" stroke="#2a2a2a" stroke-width="2.6" stroke-linecap="round" stroke-linejoin="round"/><path d="M75.2,106.6 C76.6,108.0 80.5,112.4 83.1,114.9 C85.7,117.3 89.5,120.2 90.7,121.3 " fill="none" stroke="#2a2a2a" stroke-width="2.6" stroke-linecap="round" stroke-linejoin="round"/><path d="M90.5,122.3 C88.4,122.5 82.2,122.9 77.8,123.4 C73.3,123.9 66.2,125.0 63.9,125.3 " fill="none" stroke="#2a2a2a" stroke-width="2.6" stroke-linecap="round" stroke-linejoin="round"/><text x="110" y="168" font-family="'Caveat', 'Patrick Hand', cursive" font-size="30" text-anchor="middle" fill="#2a2a2a" font-weight="normal">escribe</text><path d="M63.3,240.9 C65.7,231.3 73.0,215.1 84.1,208.6 C95.1,202.0 116.7,197.4 129.6,201.7 C142.5,206.0 157.6,223.5 161.5,234.4 C165.4,245.2 160.1,264.0 153.1,266.6 C146.1,269.1 128.9,247.9 119.5,249.8 C110.1,251.6 104.8,275.0 96.4,277.8 C88.1,280.5 74.9,272.3 69.4,266.2 C63.9,260.1 60.8,250.5 63.3,240.9 Z" fill="#f5e2c0" stroke="none" opacity="1.0"/><path d="M61.8,239.7 C64.5,229.7 71.6,212.7 82.4,206.4 C93.1,200.1 113.0,197.9 126.1,201.8 C139.3,205.8 157.3,219.6 161.0,230.3 C164.8,240.9 155.9,262.9 148.6,265.9 C141.3,269.0 126.5,246.7 117.5,248.5 C108.4,250.2 103.0,273.5 94.5,276.4 C86.0,279.3 71.9,272.2 66.4,266.1 C61.0,260.0 59.2,249.6 61.8,239.7 Z" fill="none" stroke="#2a2a2a" stroke-width="3.0" stroke-linecap="round" stroke-linejoin="round"/><path d="M62.9,239.1 C65.2,229.0 70.8,211.0 81.4,204.8 C92.0,198.7 113.1,197.8 126.4,202.2 C139.7,206.7 157.1,221.0 161.0,231.5 C165.0,242.0 157.4,262.1 150.0,265.2 C142.6,268.3 125.8,247.9 116.6,250.0 C107.3,252.1 102.4,275.3 94.2,277.9 C86.1,280.4 72.9,271.7 67.7,265.2 C62.5,258.7 60.6,249.1 62.9,239.1 Z" fill="none" stroke="#2a2a2a" stroke-width="1.7" stroke-linecap="round" opacity="0.45"/><path d="M93.4,231.6 C93.3,232.8 93.1,233.2 92.9,233.8 C92.6,234.3 92.2,234.5 92.0,234.9 C91.7,235.4 92.0,236.2 91.3,236.5 C90.7,236.8 89.4,236.8 88.0,236.9 C86.6,237.1 84.1,237.6 83.0,237.5 C81.9,237.5 82.3,237.1 81.7,236.7 C81.0,236.3 79.9,236.1 79.2,234.9 C78.5,233.7 77.3,230.5 77.3,229.3 C77.4,228.2 78.6,228.3 79.4,227.8 C80.2,227.2 81.4,226.9 82.2,226.2 C82.9,225.5 82.8,224.4 83.8,223.5 C84.8,222.7 87.0,221.2 88.0,221.1 C89.1,221.0 89.1,222.3 90.0,222.9 C90.8,223.5 92.6,224.2 93.2,224.8 C93.7,225.4 93.3,225.4 93.3,226.5 C93.4,227.6 93.4,230.4 93.4,231.6 Z" fill="#f0645a" stroke="none" opacity="1.0"/><path d="M92.3,227.4 C92.4,228.6 93.1,231.3 92.9,232.3 C92.6,233.3 91.7,233.1 90.9,233.6 C90.1,234.0 89.2,234.4 88.1,234.8 C87.0,235.2 85.2,235.7 84.1,236.0 C83.1,236.2 82.7,236.6 81.9,236.1 C81.0,235.7 79.8,234.0 79.0,233.3 C78.2,232.6 77.5,232.9 77.2,232.1 C77.0,231.2 77.6,229.2 77.5,228.2 C77.5,227.2 77.1,227.1 77.2,226.2 C77.2,225.4 77.4,223.8 78.0,223.0 C78.6,222.2 79.7,222.3 80.9,221.7 C82.1,221.1 84.2,219.3 85.2,219.4 C86.2,219.5 86.1,221.6 86.9,222.2 C87.7,222.8 88.9,222.4 89.8,222.9 C90.7,223.4 92.0,224.6 92.4,225.3 C92.8,226.1 92.3,226.2 92.3,227.4 Z" fill="none" stroke="#2a2a2a" stroke-width="2.0" stroke-linecap="round" stroke-linejoin="round"/><path d="M120.1,222.3 C119.9,223.0 119.0,222.8 118.3,223.3 C117.5,223.7 116.6,224.3 115.6,225.1 C114.7,225.8 113.3,227.1 112.7,227.6 C112.0,228.1 112.8,228.2 111.7,228.0 C110.6,227.9 107.7,226.8 106.3,226.8 C104.9,226.8 103.9,228.2 103.3,227.8 C102.6,227.5 102.4,225.5 102.4,224.5 C102.5,223.5 103.5,222.8 103.4,221.9 C103.3,221.0 101.3,220.2 101.6,219.2 C102.0,218.2 104.5,216.4 105.4,215.8 C106.3,215.2 106.2,216.2 107.0,215.5 C107.9,214.8 109.1,211.7 110.3,211.6 C111.5,211.4 113.6,213.5 114.5,214.4 C115.3,215.3 114.4,216.1 115.2,216.8 C116.0,217.6 118.5,218.3 119.3,219.2 C120.1,220.1 120.2,221.6 120.1,222.3 Z" fill="#ffd95a" stroke="none" opacity="1.0"/><path d="M115.7,219.8 C115.7,220.5 114.5,220.6 114.1,221.4 C113.7,222.3 113.7,224.0 113.2,225.0 C112.8,225.9 112.1,226.8 111.2,227.1 C110.2,227.4 108.6,227.1 107.5,227.0 C106.5,227.0 105.9,227.1 104.9,226.8 C103.9,226.5 102.2,225.9 101.4,225.3 C100.6,224.7 100.4,224.0 100.2,223.2 C100.0,222.4 100.0,221.4 100.1,220.3 C100.3,219.1 100.5,217.5 100.9,216.3 C101.3,215.1 102.0,213.5 102.6,212.9 C103.2,212.4 104.0,213.4 104.7,213.1 C105.3,212.8 105.5,211.2 106.5,211.1 C107.5,211.0 109.4,211.8 110.5,212.3 C111.5,212.9 112.2,213.4 112.8,214.2 C113.4,215.1 113.7,216.4 114.2,217.4 C114.7,218.3 115.7,219.2 115.7,219.8 Z" fill="none" stroke="#2a2a2a" stroke-width="2.0" stroke-linecap="round" stroke-linejoin="round"/><path d="M142.5,227.1 C142.3,228.0 142.1,230.6 141.8,231.7 C141.5,232.8 141.6,232.5 140.8,233.5 C139.9,234.5 137.6,237.2 136.7,237.5 C135.8,237.8 136.2,235.7 135.6,235.1 C135.0,234.6 134.3,234.1 133.1,234.1 C131.9,234.1 129.0,236.0 128.3,235.4 C127.5,234.9 129.1,231.8 128.7,230.8 C128.3,229.7 126.3,230.1 126.0,229.0 C125.8,227.9 126.7,225.2 127.2,224.2 C127.7,223.2 128.2,223.9 129.0,223.0 C129.7,222.1 130.3,219.4 131.6,219.0 C132.9,218.5 135.9,220.2 136.9,220.3 C137.9,220.3 136.4,218.8 137.3,219.2 C138.3,219.6 141.9,221.4 142.8,222.6 C143.8,223.8 143.1,225.7 143.0,226.4 C143.0,227.2 142.7,226.2 142.5,227.1 Z" fill="#8ccbf2" stroke="none" opacity="1.0"/><path d="M139.9,225.0 C140.0,226.1 140.1,228.7 139.7,229.8 C139.3,231.0 138.1,231.6 137.6,232.2 C137.2,232.7 137.4,233.2 136.8,233.4 C136.1,233.6 134.7,233.2 133.5,233.2 C132.4,233.1 131.0,233.7 130.0,233.4 C129.0,233.1 128.2,232.0 127.6,231.5 C126.9,230.9 126.2,231.0 126.0,230.3 C125.7,229.5 126.0,228.0 126.0,226.9 C126.0,225.9 126.0,225.2 126.2,224.0 C126.4,222.7 126.4,220.3 127.1,219.4 C127.9,218.4 129.9,218.4 130.8,218.4 C131.8,218.3 131.8,219.3 132.7,219.2 C133.5,219.2 134.9,217.9 136.0,218.0 C137.2,218.0 139.2,218.5 139.7,219.4 C140.3,220.3 139.2,222.4 139.3,223.4 C139.3,224.3 139.8,223.9 139.9,225.0 Z" fill="none" stroke="#2a2a2a" stroke-width="2.0" stroke-linecap="round" stroke-linejoin="round"/><path d="M149.8,250.0 C149.6,250.9 149.0,253.9 148.1,255.2 C147.2,256.5 145.3,257.0 144.4,257.7 C143.5,258.4 143.2,259.3 142.7,259.5 C142.2,259.6 142.2,258.8 141.1,258.6 C140.1,258.4 137.9,258.5 136.5,258.3 C135.1,258.0 133.3,257.4 132.8,257.0 C132.3,256.6 133.6,256.8 133.5,255.9 C133.3,255.0 131.9,252.8 131.8,251.6 C131.8,250.4 132.8,249.6 133.3,248.9 C133.8,248.2 134.0,248.0 134.8,247.5 C135.7,246.9 137.5,246.3 138.3,245.6 C139.1,244.9 139.0,243.6 139.6,243.3 C140.2,243.1 141.0,243.6 142.1,243.9 C143.1,244.1 144.6,244.0 145.8,244.9 C147.0,245.9 148.5,248.7 149.2,249.5 C149.9,250.4 150.0,249.1 149.8,250.0 Z" fill="#a6e05a" stroke="none" opacity="1.0"/><path d="M146.4,248.5 C146.3,249.7 145.7,252.2 145.2,253.3 C144.6,254.3 144.1,254.1 143.3,254.9 C142.4,255.6 141.0,257.3 140.1,257.6 C139.2,258.0 138.6,257.4 137.8,257.1 C137.0,256.9 136.3,256.5 135.3,256.1 C134.3,255.6 132.6,255.2 131.9,254.6 C131.2,253.9 131.3,252.9 131.1,252.2 C130.9,251.4 130.9,251.2 130.6,250.2 C130.3,249.2 129.1,247.3 129.3,246.1 C129.5,244.9 130.7,243.5 131.7,242.9 C132.7,242.3 134.3,242.8 135.4,242.5 C136.5,242.2 137.7,241.2 138.4,241.1 C139.2,241.1 139.0,241.9 140.0,242.2 C140.9,242.5 143.1,242.3 144.1,242.9 C145.0,243.6 145.3,245.1 145.6,246.0 C146.0,247.0 146.5,247.3 146.4,248.5 Z" fill="none" stroke="#2a2a2a" stroke-width="2.0" stroke-linecap="round" stroke-linejoin="round"/><text x="110" y="318" font-family="'Caveat', 'Patrick Hand', cursive" font-size="30" text-anchor="middle" fill="#2a2a2a" font-weight="normal">dibuja</text><path d="M69.5,364.8 C77.8,363.8 98.8,364.8 113.3,364.7 C127.7,364.6 148.0,363.0 156.2,364.2 C164.3,365.4 161.1,365.4 162.0,371.8 C162.9,378.3 161.3,392.9 161.6,403.0 C161.9,413.2 164.8,426.1 163.8,432.7 C162.8,439.4 163.9,441.6 155.4,442.9 C147.0,444.1 127.2,440.4 113.2,440.3 C99.3,440.2 80.4,443.4 71.7,442.2 C63.0,440.9 62.9,439.5 61.1,432.8 C59.4,426.0 61.0,412.2 61.3,401.8 C61.6,391.4 61.8,376.6 63.2,370.4 C64.6,364.3 61.1,365.7 69.5,364.8 Z" fill="#3b3b3b" stroke="none" opacity="1.0"/><path d="M68.5,360.4 C76.8,358.9 95.5,360.5 109.7,360.4 C123.8,360.3 144.9,358.4 153.3,360.0 C161.6,361.5 158.5,363.1 159.8,369.6 C161.1,376.2 161.1,389.1 161.2,399.2 C161.3,409.2 161.7,423.2 160.4,430.0 C159.1,436.8 162.0,438.4 153.4,440.0 C144.8,441.6 123.3,439.7 108.9,439.8 C94.5,439.8 75.2,441.5 66.8,440.3 C58.4,439.0 59.9,438.9 58.6,432.2 C57.3,425.5 58.8,410.6 58.9,400.1 C59.1,389.7 57.9,376.2 59.5,369.6 C61.1,363.0 60.1,362.0 68.5,360.4 Z" fill="none" stroke="#2a2a2a" stroke-width="3.0" stroke-linecap="round" stroke-linejoin="round"/><path d="M66.9,361.8 C75.4,360.8 97.0,361.6 111.0,361.4 C125.0,361.2 143.0,359.2 151.1,360.7 C159.2,362.3 158.1,363.8 159.7,370.6 C161.2,377.3 160.2,391.3 160.3,401.3 C160.4,411.2 161.8,423.9 160.3,430.3 C158.9,436.7 160.2,438.4 151.6,439.8 C142.9,441.3 122.7,438.9 108.7,439.0 C94.6,439.1 75.5,442.2 67.5,440.6 C59.5,439.1 62.0,436.5 60.5,429.7 C59.1,422.8 59.0,410.1 58.9,399.8 C58.9,389.4 59.0,373.9 60.3,367.6 C61.7,361.3 58.5,362.9 66.9,361.8 Z" fill="none" stroke="#2a2a2a" stroke-width="1.7" stroke-linecap="round" opacity="0.45"/><text x="110" y="413.8" font-family="'Kalam', 'Patrick Hand', cursive" font-size="39.099999999999994" text-anchor="middle" fill="#a6e05a" font-weight="normal">&lt;/></text><text x="110" y="478" font-family="'Caveat', 'Patrick Hand', cursive" font-size="30" text-anchor="middle" fill="#2a2a2a" font-weight="normal">programa</text><path d="M790.5,38.3 C794.2,35.4 792.3,38.2 792.9,38.6 C793.5,38.9 790.3,37.5 793.9,40.5 C797.5,43.5 811.4,51.0 814.5,56.6 C817.6,62.1 813.0,67.7 812.7,73.6 C812.4,79.6 815.8,85.7 812.6,92.1 C809.5,98.5 797.1,109.1 793.7,112.0 C790.4,114.9 793.1,110.0 792.3,109.5 C791.5,109.0 792.3,112.0 788.9,109.1 C785.4,106.2 774.4,97.9 771.7,92.1 C769.0,86.2 773.1,80.1 772.9,74.1 C772.8,68.0 767.8,61.8 770.7,55.8 C773.6,49.9 786.8,41.2 790.5,38.3 Z" fill="#8ccbf2" stroke="none" opacity="1.0"/><path d="M787.8,36.3 C790.9,33.2 788.3,36.0 789.2,36.1 C790.0,36.2 789.1,33.6 792.8,36.7 C796.5,39.8 808.2,48.9 811.3,54.8 C814.4,60.7 811.7,66.1 811.5,72.1 C811.4,78.2 813.4,84.9 810.4,91.1 C807.4,97.2 796.9,106.3 793.6,109.1 C790.3,112.0 791.5,108.3 790.4,108.4 C789.4,108.4 790.7,112.5 787.1,109.4 C783.5,106.4 771.8,96.3 768.9,90.2 C766.0,84.1 769.5,78.8 769.7,72.9 C770.0,66.9 767.3,60.8 770.3,54.7 C773.3,48.6 784.7,39.4 787.8,36.3 Z" fill="none" stroke="#2a2a2a" stroke-width="3.0" stroke-linecap="round" stroke-linejoin="round"/><path d="M788.4,37.9 C791.8,35.4 788.0,38.4 788.8,38.5 C789.6,38.6 789.7,35.6 793.4,38.5 C797.0,41.5 807.9,50.5 810.8,56.4 C813.7,62.3 810.7,68.6 810.8,74.1 C811.0,79.6 814.5,83.9 811.7,89.4 C808.9,94.9 797.6,104.2 794.0,107.3 C790.4,110.3 791.2,107.8 790.0,107.9 C788.9,107.9 790.7,110.5 787.1,107.7 C783.5,104.9 771.7,97.0 768.6,91.2 C765.6,85.4 769.0,79.0 769.0,72.8 C768.9,66.6 764.9,59.8 768.1,54.0 C771.4,48.1 785.0,40.5 788.4,37.9 Z" fill="none" stroke="#2a2a2a" stroke-width="1.7" stroke-linecap="round" opacity="0.45"/><path d="M778.9,57.6 C780.8,57.8 786.5,58.8 790.1,58.7 C793.8,58.6 798.9,57.5 800.6,57.3 " fill="none" stroke="#2a2a2a" stroke-width="2.2" stroke-linecap="round" stroke-linejoin="round"/><path d="M779.3,74.3 C781.2,74.1 787.0,73.1 790.7,73.1 C794.3,73.2 799.6,74.4 801.3,74.7 " fill="none" stroke="#2a2a2a" stroke-width="2.2" stroke-linecap="round" stroke-linejoin="round"/><path d="M779.5,90.5 C781.4,90.3 787.3,89.6 791.0,89.7 C794.8,89.7 800.1,90.7 801.9,91.0 " fill="none" stroke="#2a2a2a" stroke-width="2.2" stroke-linecap="round" stroke-linejoin="round"/><path d="M754.6,83.4 C755.1,88.7 751.3,107.8 757.3,115.4 C763.4,123.0 780.3,128.9 791.0,128.9 C801.6,128.9 815.6,123.1 821.2,115.3 C826.8,107.6 824.1,88.0 824.7,82.5 " fill="none" stroke="#2a2a2a" stroke-width="3.4" stroke-linecap="round" stroke-linejoin="round"/><path d="M756.6,82.4 C756.8,87.9 752.4,107.5 757.7,115.5 C763.0,123.5 777.5,130.7 788.3,130.6 C799.1,130.4 816.4,122.2 822.7,114.5 C828.9,106.8 825.4,89.1 826.0,84.1 " fill="none" stroke="#2a2a2a" stroke-width="1.9" stroke-linecap="round" opacity="0.45"/><path d="M790.2,129.1 C790.2,130.5 790.5,134.8 790.4,137.7 C790.4,140.6 790.0,145.0 789.9,146.5 " fill="none" stroke="#2a2a2a" stroke-width="3.4" stroke-linecap="round" stroke-linejoin="round"/><path d="M788.6,129.4 C788.9,131.1 789.8,136.2 790.1,139.4 C790.4,142.5 790.4,146.8 790.4,148.2 " fill="none" stroke="#2a2a2a" stroke-width="1.9" stroke-linecap="round" opacity="0.45"/><path d="M772.0,149.6 C775.1,149.5 784.3,149.0 790.5,149.1 C796.7,149.2 806.3,149.9 809.4,150.1 " fill="none" stroke="#2a2a2a" stroke-width="3.4" stroke-linecap="round" stroke-linejoin="round"/><path d="M771.4,150.3 C774.5,150.2 783.6,149.0 789.8,149.2 C796.1,149.3 805.6,150.9 808.8,151.2 " fill="none" stroke="#2a2a2a" stroke-width="1.9" stroke-linecap="round" opacity="0.45"/><text x="790" y="168" font-family="'Caveat', 'Patrick Hand', cursive" font-size="30" text-anchor="middle" fill="#2a2a2a" font-weight="normal">habla</text><path d="M750.2,204.4 C758.9,203.1 777.7,204.7 792.1,204.7 C806.5,204.6 828.5,202.6 836.7,203.9 C845.0,205.2 840.4,206.1 841.5,212.5 C842.6,218.8 842.9,231.7 843.3,241.8 C843.8,252.0 845.5,266.8 844.3,273.4 C843.2,280.0 845.2,279.8 836.4,281.4 C827.5,282.9 805.8,282.8 791.3,282.8 C776.7,282.7 757.2,283.0 748.8,281.2 C740.4,279.3 742.0,278.0 740.8,271.4 C739.7,264.9 742.0,251.5 741.9,241.6 C741.8,231.8 739.0,218.4 740.4,212.2 C741.8,206.0 741.6,205.6 750.2,204.4 Z" fill="#fffdf6" stroke="none" opacity="1.0"/><path d="M747.5,201.1 C755.9,199.7 774.9,200.5 789.2,200.5 C803.4,200.5 824.6,199.8 833.2,201.2 C841.7,202.5 838.9,202.0 840.3,208.5 C841.7,215.0 841.6,229.5 841.6,240.0 C841.5,250.5 841.3,264.9 839.9,271.5 C838.5,278.1 841.3,278.4 832.9,279.6 C824.5,280.8 803.8,279.3 789.4,279.0 C775.1,278.7 755.4,279.3 747.0,278.0 C738.7,276.7 740.6,277.6 739.3,271.4 C738.1,265.3 739.5,251.3 739.4,241.0 C739.3,230.6 737.6,216.0 738.9,209.4 C740.3,202.7 739.2,202.6 747.5,201.1 Z" fill="none" stroke="#2a2a2a" stroke-width="3.0" stroke-linecap="round" stroke-linejoin="round"/><path d="M748.5,201.7 C756.6,200.9 775.0,202.9 788.9,202.5 C802.7,202.1 822.9,198.4 831.5,199.3 C840.2,200.3 839.5,201.6 840.9,208.2 C842.3,214.8 839.9,228.6 840.0,238.8 C840.2,249.1 843.0,262.6 841.6,269.5 C840.3,276.5 840.8,279.0 832.0,280.7 C823.2,282.5 802.8,280.1 788.7,279.8 C774.7,279.4 756.0,280.3 747.8,278.6 C739.7,277.0 741.0,276.2 739.8,270.0 C738.6,263.7 740.5,251.6 740.5,241.2 C740.5,230.7 738.7,213.9 740.0,207.3 C741.4,200.8 740.3,202.5 748.5,201.7 Z" fill="none" stroke="#2a2a2a" stroke-width="1.7" stroke-linecap="round" opacity="0.45"/><path d="M778.0,219.9 L817.4,240.1 L779.8,264.5 Z" fill="#f0645a" stroke="none"/><path d="M777.1,218.7 C780.2,220.4 789.5,225.2 795.4,228.8 C801.4,232.5 809.9,238.6 812.9,240.5 " fill="none" stroke="#2a2a2a" stroke-width="2.6" stroke-linecap="round" stroke-linejoin="round"/><path d="M812.9,239.4 C809.9,241.2 800.8,246.4 794.8,250.1 C788.9,253.8 779.9,259.5 777.0,261.4 " fill="none" stroke="#2a2a2a" stroke-width="2.6" stroke-linecap="round" stroke-linejoin="round"/><path d="M775.3,261.4 C775.3,257.7 775.2,246.2 775.6,239.4 C775.9,232.5 777.0,223.5 777.3,220.3 " fill="none" stroke="#2a2a2a" stroke-width="2.6" stroke-linecap="round" stroke-linejoin="round"/><text x="790" y="318" font-family="'Caveat', 'Patrick Hand', cursive" font-size="30" text-anchor="middle" fill="#2a2a2a" font-weight="normal">crea vídeo</text><path d="M750.8,369.0 C758.5,367.9 778.9,366.7 792.9,366.6 C806.8,366.4 827.2,367.4 834.5,368.1 C841.9,368.8 836.2,365.1 837.0,370.8 C837.8,376.6 839.5,392.5 839.5,402.6 C839.5,412.6 837.4,425.7 836.9,431.1 C836.3,436.5 843.5,434.0 836.3,435.1 C829.2,436.1 808.4,437.3 794.0,437.4 C779.5,437.5 757.7,436.7 749.7,435.6 C741.7,434.6 746.8,436.4 746.1,431.1 C745.3,425.8 745.2,413.6 745.3,403.9 C745.4,394.2 745.6,378.6 746.5,372.8 C747.4,367.0 743.1,370.0 750.8,369.0 Z" fill="#8ccbf2" stroke="none" opacity="1.0"/><path d="M748.7,364.8 C756.5,364.4 776.9,366.2 790.6,366.2 C804.3,366.3 823.5,364.6 831.0,365.2 C838.5,365.7 834.9,363.8 835.7,369.6 C836.6,375.4 835.9,389.6 836.1,399.9 C836.3,410.2 837.7,425.7 837.0,431.6 C836.2,437.6 839.9,434.8 831.9,435.4 C824.0,436.1 803.5,435.5 789.4,435.5 C775.2,435.4 754.4,435.8 746.9,435.0 C739.4,434.3 744.8,436.7 744.2,431.0 C743.6,425.2 743.6,410.7 743.5,400.4 C743.5,390.0 743.0,374.8 743.9,368.8 C744.8,362.9 740.9,365.2 748.7,364.8 Z" fill="none" stroke="#2a2a2a" stroke-width="3.0" stroke-linecap="round" stroke-linejoin="round"/><path d="M747.8,366.1 C755.6,365.6 777.5,366.9 791.6,366.8 C805.8,366.6 825.2,365.1 832.7,365.4 C840.2,365.7 836.2,362.7 836.7,368.6 C837.1,374.6 835.8,391.0 835.6,401.1 C835.3,411.1 836.3,423.7 835.4,429.0 C834.6,434.3 837.9,432.3 830.5,432.9 C823.1,433.6 804.3,432.8 790.7,433.0 C777.2,433.2 756.9,434.8 749.1,434.3 C741.3,433.8 744.8,435.7 744.0,430.1 C743.3,424.5 744.8,410.8 744.8,400.8 C744.9,390.7 744.0,375.5 744.5,369.7 C745.0,363.9 739.9,366.5 747.8,366.1 Z" fill="none" stroke="#2a2a2a" stroke-width="1.7" stroke-linecap="round" opacity="0.45"/><path d="M789.5,365.6 C789.6,371.4 789.6,388.5 789.9,400.0 C790.1,411.5 790.8,428.8 791.0,434.6 " fill="none" stroke="#2a2a2a" stroke-width="2.6" stroke-linecap="round" stroke-linejoin="round"/><path d="M756.2,386.1 C758.0,386.3 763.2,386.9 766.8,387.0 C770.5,387.1 776.1,386.8 777.9,386.8 " fill="none" stroke="#2a2a2a" stroke-width="2.2" stroke-linecap="round" stroke-linejoin="round"/><path d="M802.0,385.6 C803.7,385.9 808.4,386.9 812.3,387.0 C816.2,387.1 823.2,386.3 825.4,386.1 " fill="none" stroke="#2a2a2a" stroke-width="2.2" stroke-linecap="round" stroke-linejoin="round"/><path d="M754.8,404.0 C756.9,404.0 763.4,403.8 767.1,404.0 C770.9,404.2 775.8,404.8 777.5,404.9 " fill="none" stroke="#2a2a2a" stroke-width="2.2" stroke-linecap="round" stroke-linejoin="round"/><path d="M802.4,403.7 C804.3,403.7 810.4,403.6 814.0,403.6 C817.5,403.6 822.2,403.8 823.8,403.8 " fill="none" stroke="#2a2a2a" stroke-width="2.2" stroke-linecap="round" stroke-linejoin="round"/><text x="790" y="478" font-family="'Caveat', 'Patrick Hand', cursive" font-size="30" text-anchor="middle" fill="#2a2a2a" font-weight="normal">enseña</text><path d="M177.9,95.6 C185.3,98.0 207.6,104.1 221.9,109.8 C236.2,115.4 250.2,122.5 263.6,129.5 C277.1,136.5 289.9,143.3 302.7,151.8 C315.5,160.2 334.1,175.6 340.4,180.4 " fill="none" stroke="#2a2a2a" stroke-width="3.4" stroke-linecap="round" stroke-linejoin="round"/><path d="M178.7,97.4 C185.8,99.6 207.3,105.4 221.5,110.6 C235.7,115.8 250.3,122.0 263.8,128.9 C277.4,135.8 290.2,143.7 302.8,152.2 C315.5,160.7 333.6,175.2 339.7,179.8 " fill="none" stroke="#2a2a2a" stroke-width="1.9" stroke-linecap="round" opacity="0.45"/><path d="M340.6,180.3 C340.1,179.2 338.8,176.2 337.5,173.6 C336.3,171.0 333.7,166.3 332.9,164.9 " fill="none" stroke="#2a2a2a" stroke-width="3.4" stroke-linecap="round" stroke-linejoin="round"/><path d="M340.1,180.9 C338.6,180.5 333.9,179.3 331.3,178.6 C328.6,177.9 325.3,177.2 324.1,176.9 " fill="none" stroke="#2a2a2a" stroke-width="3.4" stroke-linecap="round" stroke-linejoin="round"/><path d="M178.7,240.7 C185.3,241.7 204.7,245.4 217.9,246.8 C231.1,248.2 244.5,248.5 258.1,249.2 C271.7,249.9 285.9,250.7 299.6,250.9 C313.2,251.1 333.0,250.7 339.7,250.6 " fill="none" stroke="#2a2a2a" stroke-width="3.4" stroke-linecap="round" stroke-linejoin="round"/><path d="M178.7,240.4 C185.5,241.3 205.8,244.0 219.3,245.7 C232.8,247.5 246.3,250.1 259.7,250.9 C273.0,251.7 286.1,250.6 299.5,250.6 C312.8,250.5 333.1,250.7 339.9,250.8 " fill="none" stroke="#2a2a2a" stroke-width="1.9" stroke-linecap="round" opacity="0.45"/><path d="M341.0,249.6 C339.7,249.2 335.6,248.5 333.2,247.3 C330.8,246.0 327.8,242.9 326.7,242.0 " fill="none" stroke="#2a2a2a" stroke-width="3.4" stroke-linecap="round" stroke-linejoin="round"/><path d="M340.0,249.3 C338.9,250.2 335.8,253.2 333.7,254.6 C331.6,256.1 328.2,257.4 327.2,257.9 " fill="none" stroke="#2a2a2a" stroke-width="3.4" stroke-linecap="round" stroke-linejoin="round"/><path d="M178.4,395.0 C185.9,393.2 208.5,388.4 223.5,383.8 C238.4,379.1 253.7,373.5 268.1,367.2 C282.6,360.9 296.5,354.0 310.2,346.0 C323.9,338.0 343.6,323.6 350.3,319.1 " fill="none" stroke="#2a2a2a" stroke-width="3.4" stroke-linecap="round" stroke-linejoin="round"/><path d="M178.8,394.7 C186.1,393.0 208.0,388.6 222.7,384.1 C237.3,379.7 252.1,374.2 266.6,367.8 C281.1,361.5 295.6,353.9 309.7,346.0 C323.8,338.1 344.2,324.7 351.1,320.4 " fill="none" stroke="#2a2a2a" stroke-width="1.9" stroke-linecap="round" opacity="0.45"/><path d="M350.6,319.4 C349.1,319.5 344.7,320.1 341.8,320.3 C339.0,320.6 334.8,320.9 333.4,321.1 " fill="none" stroke="#2a2a2a" stroke-width="3.4" stroke-linecap="round" stroke-linejoin="round"/><path d="M349.7,319.7 C348.9,321.0 346.4,324.8 345.1,327.0 C343.9,329.3 342.6,332.4 342.1,333.5 " fill="none" stroke="#2a2a2a" stroke-width="3.4" stroke-linecap="round" stroke-linejoin="round"/><path d="M722.7,96.4 C715.2,98.8 691.8,105.8 677.5,111.1 C663.2,116.4 650.5,121.5 637.0,128.2 C623.4,135.0 608.9,142.8 596.2,151.5 C583.5,160.2 566.7,175.6 560.8,180.4 " fill="none" stroke="#2a2a2a" stroke-width="3.4" stroke-linecap="round" stroke-linejoin="round"/><path d="M722.1,96.4 C715.0,98.7 693.9,105.1 679.4,110.4 C664.9,115.7 648.9,121.3 635.1,128.3 C621.3,135.3 609.0,144.0 596.3,152.7 C583.7,161.3 565.5,175.8 559.4,180.4 " fill="none" stroke="#2a2a2a" stroke-width="1.9" stroke-linecap="round" opacity="0.45"/><path d="M559.0,180.6 C560.4,180.2 564.2,178.8 567.1,178.1 C570.0,177.5 574.9,176.9 576.4,176.7 " fill="none" stroke="#2a2a2a" stroke-width="3.4" stroke-linecap="round" stroke-linejoin="round"/><path d="M559.1,180.2 C560.0,178.8 563.0,174.1 564.1,171.6 C565.2,169.2 565.6,166.7 565.9,165.7 " fill="none" stroke="#2a2a2a" stroke-width="3.4" stroke-linecap="round" stroke-linejoin="round"/><path d="M721.6,240.6 C715.3,241.5 696.4,244.4 683.9,245.8 C671.4,247.2 659.1,248.2 646.6,249.0 C634.2,249.8 621.7,250.3 609.0,250.6 C596.3,250.9 576.9,250.7 570.5,250.7 " fill="none" stroke="#2a2a2a" stroke-width="3.4" stroke-linecap="round" stroke-linejoin="round"/><path d="M723.0,240.3 C716.3,241.2 696.0,244.3 683.1,246.0 C670.2,247.7 658.2,249.9 645.5,250.6 C632.7,251.3 619.4,250.4 606.9,250.3 C594.4,250.3 576.6,250.3 570.5,250.3 " fill="none" stroke="#2a2a2a" stroke-width="1.9" stroke-linecap="round" opacity="0.45"/><path d="M570.8,250.6 C571.9,251.2 575.6,252.7 577.7,254.1 C579.8,255.5 582.6,258.1 583.6,258.9 " fill="none" stroke="#2a2a2a" stroke-width="3.4" stroke-linecap="round" stroke-linejoin="round"/><path d="M569.2,249.0 C570.5,248.7 574.2,248.4 576.6,247.3 C579.1,246.2 582.8,243.2 584.0,242.3 " fill="none" stroke="#2a2a2a" stroke-width="3.4" stroke-linecap="round" stroke-linejoin="round"/><path d="M721.4,396.5 C713.7,394.3 690.3,388.1 675.5,383.2 C660.6,378.4 646.7,373.7 632.4,367.6 C618.1,361.4 603.2,354.4 589.5,346.4 C575.9,338.5 556.9,324.3 550.3,319.9 " fill="none" stroke="#2a2a2a" stroke-width="3.4" stroke-linecap="round" stroke-linejoin="round"/><path d="M723.2,396.5 C715.1,394.1 689.9,387.4 674.8,382.5 C659.7,377.7 646.9,373.4 632.5,367.5 C618.2,361.5 602.8,355.0 588.9,346.9 C574.9,338.8 555.6,323.7 548.9,319.0 " fill="none" stroke="#2a2a2a" stroke-width="1.9" stroke-linecap="round" opacity="0.45"/><path d="M549.5,320.3 C550.3,321.6 553.0,325.8 554.2,328.0 C555.5,330.1 556.6,332.2 557.1,333.1 " fill="none" stroke="#2a2a2a" stroke-width="3.4" stroke-linecap="round" stroke-linejoin="round"/><path d="M549.3,319.3 C550.9,319.5 556.0,320.1 558.7,320.4 C561.5,320.7 564.6,321.1 565.8,321.2 " fill="none" stroke="#2a2a2a" stroke-width="3.4" stroke-linecap="round" stroke-linejoin="round"/><text x="450" y="530" font-family="'Caveat', 'Patrick Hand', cursive" font-size="30" text-anchor="middle" fill="#2a2a2a" font-weight="normal">casi todo lo que hace un humano con el lenguaje...</text></svg>