<svg xmlns="http://www.w3.org/2000/svg" viewBox="0 0 900 560" width="900" height="560"><!-- Ilustración original de Juan David Rodríguez García (generada con herramientas/sketch.py) · CC BY-NC 4.0 --><path d="M428.4,136.5 C436.0,133.4 465.8,134.2 473.1,138.5 C480.3,142.7 473.7,155.1 471.6,161.9 C469.5,168.8 461.1,173.9 460.5,179.3 C459.8,184.7 468.2,190.2 467.6,194.4 C467.0,198.5 460.1,205.2 456.9,204.4 C453.7,203.7 451.5,194.7 448.2,189.8 C445.0,185.0 440.9,180.7 437.4,175.2 C433.9,169.7 428.7,163.4 427.2,157.0 C425.7,150.5 420.8,139.6 428.4,136.5 Z" fill="#a6e05a" stroke="none" opacity="1.0"/><path d="M428.6,136.6 C436.4,133.3 466.1,131.7 472.8,135.5 C479.6,139.2 471.2,152.3 469.2,159.3 C467.2,166.3 461.7,171.8 460.9,177.3 C460.1,182.8 465.7,188.1 464.4,192.1 C463.1,196.1 456.1,201.6 453.2,201.2 C450.2,200.7 449.8,193.6 446.7,189.4 C443.6,185.2 438.0,181.4 434.7,175.8 C431.3,170.1 427.4,162.1 426.4,155.6 C425.4,149.0 420.9,140.0 428.6,136.6 Z" fill="none" stroke="#2a2a2a" stroke-width="2.04" stroke-linecap="round" stroke-linejoin="round"/><path d="M428.6,136.2 C436.3,133.3 465.3,132.8 472.2,136.7 C479.1,140.5 472.3,152.5 470.2,159.3 C468.1,166.1 460.5,171.5 459.6,177.3 C458.7,183.2 465.7,190.3 464.7,194.2 C463.8,198.2 456.8,201.5 453.8,200.9 C450.8,200.3 450.1,195.0 446.9,190.8 C443.8,186.6 438.4,181.7 434.9,175.5 C431.4,169.4 427.0,160.4 426.0,153.9 C424.9,147.3 420.9,139.0 428.6,136.2 Z" fill="none" stroke="#2a2a2a" stroke-width="1.1" stroke-linecap="round" opacity="0.45"/><path d="M472.9,124.3 C473.0,126.7 473.6,128.4 472.8,130.9 C472.0,133.3 470.4,136.7 468.3,138.9 C466.2,141.2 463.1,143.5 460.5,144.4 C457.9,145.3 455.4,144.7 452.5,144.4 C449.7,144.1 446.2,143.3 443.3,142.7 C440.5,142.2 437.5,142.5 435.5,140.9 C433.5,139.2 432.1,135.7 431.2,132.8 C430.4,129.9 430.1,126.2 430.3,123.5 C430.6,120.8 431.8,119.1 432.8,116.6 C433.7,114.1 434.2,110.6 435.9,108.4 C437.7,106.3 440.8,104.8 443.5,103.8 C446.2,102.8 449.0,101.9 451.9,102.3 C454.8,102.7 458.3,104.9 460.8,106.2 C463.2,107.5 464.6,108.5 466.5,110.2 C468.4,111.9 471.1,113.9 472.2,116.2 C473.2,118.6 472.8,121.8 472.9,124.3 Z" fill="#a6e05a" stroke="none" opacity="1.0"/><path d="M472.6,123.1 C472.7,125.6 472.1,127.3 471.1,129.6 C470.1,131.9 468.7,134.9 466.5,137.1 C464.3,139.3 460.4,141.7 457.8,142.9 C455.2,144.1 453.4,144.3 450.9,144.3 C448.4,144.2 445.5,143.5 442.8,142.5 C440.0,141.5 436.6,140.0 434.5,138.1 C432.4,136.2 431.2,133.7 430.1,131.1 C428.9,128.5 427.6,125.3 427.6,122.6 C427.6,119.9 428.9,117.2 429.9,114.9 C430.9,112.6 431.7,110.6 433.7,108.7 C435.7,106.8 439.2,104.6 441.9,103.4 C444.7,102.2 447.2,101.3 450.1,101.4 C452.9,101.4 456.5,102.4 459.2,103.7 C461.9,104.9 464.4,107.0 466.3,108.7 C468.2,110.5 469.7,111.9 470.7,114.3 C471.8,116.7 472.6,120.5 472.6,123.1 Z" fill="none" stroke="#2a2a2a" stroke-width="2.04" stroke-linecap="round" stroke-linejoin="round"/><path d="M472.2,124.3 C472.4,126.8 471.8,127.0 470.6,129.4 C469.4,131.8 466.9,136.6 465.1,138.7 C463.3,140.7 462.1,140.8 459.6,141.8 C457.2,142.7 453.0,144.4 450.1,144.5 C447.3,144.5 444.7,143.0 442.4,142.0 C440.0,141.0 438.3,140.8 436.1,138.7 C433.9,136.6 430.4,131.9 429.1,129.3 C427.7,126.7 428.0,125.9 428.0,123.2 C428.1,120.6 428.1,115.7 429.3,113.4 C430.4,111.0 432.8,110.8 434.9,109.1 C437.1,107.4 439.4,104.4 442.1,103.3 C444.7,102.1 448.3,102.1 450.9,102.1 C453.6,102.0 455.5,102.3 457.8,103.2 C460.1,104.1 463.0,105.6 464.9,107.5 C466.9,109.4 468.2,111.9 469.4,114.7 C470.6,117.5 472.0,121.9 472.2,124.3 Z" fill="none" stroke="#2a2a2a" stroke-width="1.1" stroke-linecap="round" opacity="0.45"/><path d="M434.0,114.0 C434.3,119.2 442.4,140.5 448.3,140.3 C454.1,140.1 468.0,118.0 469.3,112.8 C470.5,107.7 459.7,110.0 455.9,109.4 C452.1,108.9 450.2,108.6 446.6,109.4 C442.9,110.1 433.8,108.9 434.0,114.0 Z" fill="#c3a6f0" stroke="none" opacity="1.0"/><path d="M432.5,112.0 C432.9,117.1 441.6,137.8 447.3,137.9 C453.0,138.0 465.4,117.4 466.7,112.5 C467.9,107.7 458.3,109.5 454.7,108.6 C451.2,107.8 448.9,106.8 445.2,107.4 C441.5,107.9 432.2,106.9 432.5,112.0 Z" fill="none" stroke="#2a2a2a" stroke-width="1.7999999999999998" stroke-linecap="round" stroke-linejoin="round"/><path d="M432.9,111.4 C433.3,116.5 442.0,137.6 447.5,137.9 C453.1,138.1 464.9,117.8 466.2,112.8 C467.6,107.9 459.1,109.1 455.5,108.2 C452.0,107.3 448.9,106.7 445.1,107.2 C441.3,107.8 432.5,106.3 432.9,111.4 Z" fill="none" stroke="#2a2a2a" stroke-width="1.0" stroke-linecap="round" opacity="0.45"/><path d="M434.8,136.8 C438.5,136.3 445.9,137.4 451.7,137.3 C457.5,137.2 465.7,135.4 469.6,136.1 C473.4,136.8 474.0,140.3 474.6,141.3 C475.2,142.3 473.4,142.1 473.4,142.2 C473.3,142.3 475.0,141.4 474.5,141.8 C474.1,142.3 474.6,144.4 470.6,144.9 C466.7,145.4 456.8,144.7 450.6,144.9 C444.5,145.1 437.3,146.6 433.9,146.0 C430.5,145.5 430.9,142.3 430.2,141.6 C429.5,140.9 429.9,142.0 429.9,141.7 C429.8,141.5 429.0,140.9 429.8,140.1 C430.6,139.3 431.2,137.3 434.8,136.8 Z" fill="#ff9d5c" stroke="none" opacity="1.0"/><path d="M432.1,135.6 C435.7,134.9 443.3,136.2 449.3,136.2 C455.4,136.2 464.7,135.0 468.5,135.7 C472.4,136.3 471.6,139.4 472.3,140.2 C472.9,141.0 472.3,140.7 472.3,140.6 C472.3,140.4 473.0,138.8 472.3,139.3 C471.6,139.9 471.9,142.9 468.2,143.8 C464.4,144.6 456.0,144.2 449.9,144.3 C443.8,144.3 435.0,145.0 431.5,144.2 C428.0,143.4 429.2,140.0 428.7,139.3 C428.2,138.7 428.7,140.1 428.5,140.3 C428.4,140.5 427.3,141.2 427.9,140.4 C428.4,139.6 428.5,136.4 432.1,135.6 Z" fill="none" stroke="#2a2a2a" stroke-width="1.7999999999999998" stroke-linecap="round" stroke-linejoin="round"/><path d="M431.1,135.3 C435.1,134.6 445.1,136.3 451.1,136.3 C457.1,136.3 463.8,134.6 467.3,135.2 C470.7,135.8 470.9,139.4 471.9,140.1 C472.8,140.8 473.0,139.4 473.1,139.3 C473.1,139.3 473.1,138.9 472.3,139.9 C471.5,140.8 472.0,144.2 468.1,145.0 C464.3,145.8 455.1,145.0 449.2,144.7 C443.2,144.5 436.2,144.2 432.5,143.5 C428.8,142.8 427.8,141.2 427.2,140.5 C426.5,139.9 428.8,139.7 428.8,139.7 C428.8,139.6 426.8,140.9 427.2,140.1 C427.6,139.4 427.1,135.9 431.1,135.3 Z" fill="none" stroke="#2a2a2a" stroke-width="1.0" stroke-linecap="round" opacity="0.45"/><path d="M429.2,117.8 C427.1,116.0 420.7,110.5 416.4,106.9 C412.1,103.4 405.6,98.3 403.5,96.6 " fill="none" stroke="#2a2a2a" stroke-width="2.16" stroke-linecap="round" stroke-linejoin="round"/><path d="M429.5,117.2 C427.2,115.6 420.2,110.9 415.9,107.4 C411.5,104.0 405.5,98.3 403.4,96.5 " fill="none" stroke="#2a2a2a" stroke-width="1.2" stroke-linecap="round" opacity="0.45"/><path d="M471.3,117.6 C473.4,115.8 479.5,110.3 483.6,106.9 C487.7,103.5 494.0,98.9 496.0,97.3 " fill="none" stroke="#2a2a2a" stroke-width="2.16" stroke-linecap="round" stroke-linejoin="round"/><path d="M470.9,117.4 C472.8,115.7 478.4,110.6 482.6,107.0 C486.7,103.5 493.6,98.0 495.8,96.2 " fill="none" stroke="#2a2a2a" stroke-width="1.2" stroke-linecap="round" opacity="0.45"/><path d="M409.6,95.8 C409.4,96.4 409.0,96.8 408.6,97.3 C408.2,97.7 407.5,97.5 407.0,98.2 C406.4,99.0 406.0,101.4 405.2,101.7 C404.5,102.1 403.0,100.4 402.3,100.4 C401.6,100.5 401.6,102.3 401.0,102.0 C400.4,101.6 399.4,99.2 398.7,98.4 C398.0,97.6 397.3,97.5 396.9,97.1 C396.5,96.6 396.4,96.4 396.4,95.5 C396.4,94.7 396.7,92.9 397.1,92.0 C397.4,91.2 397.9,90.9 398.5,90.3 C399.0,89.8 399.7,89.2 400.4,88.9 C401.2,88.6 402.1,88.5 403.1,88.6 C404.1,88.7 405.7,89.3 406.4,89.5 C407.0,89.7 406.5,89.1 407.1,89.8 C407.7,90.5 409.6,92.7 410.0,93.7 C410.4,94.7 409.8,95.2 409.6,95.8 Z" fill="#a6e05a" stroke="none" opacity="1.0"/><path d="M408.7,94.3 C408.6,95.2 407.9,95.4 407.4,96.0 C407.0,96.6 406.5,97.3 405.9,98.0 C405.4,98.7 404.9,99.9 404.1,100.3 C403.3,100.6 402.0,100.4 401.3,100.3 C400.6,100.2 400.5,100.2 400.0,99.8 C399.4,99.3 398.6,98.1 398.0,97.5 C397.3,96.9 396.1,96.7 395.8,96.2 C395.5,95.7 396.0,95.4 396.2,94.5 C396.4,93.7 396.8,91.8 397.0,91.1 C397.2,90.3 397.0,90.4 397.4,90.0 C397.7,89.7 398.4,89.4 399.1,89.1 C399.8,88.7 400.6,88.4 401.6,88.2 C402.5,88.0 404.3,87.6 405.0,87.9 C405.6,88.1 405.1,89.4 405.6,89.9 C406.0,90.4 407.3,90.0 407.8,90.8 C408.3,91.5 408.8,93.4 408.7,94.3 Z" fill="none" stroke="#2a2a2a" stroke-width="1.7999999999999998" stroke-linecap="round" stroke-linejoin="round"/><path d="M407.9,94.6 C407.9,95.3 408.6,95.4 408.1,96.1 C407.7,96.7 406.0,97.8 405.3,98.3 C404.7,98.9 404.9,99.1 404.3,99.4 C403.7,99.7 402.8,100.1 402.0,100.2 C401.2,100.2 400.3,99.8 399.6,99.6 C398.9,99.4 398.3,99.6 397.9,98.9 C397.5,98.1 397.2,96.0 397.0,95.1 C396.8,94.2 396.7,93.9 396.6,93.2 C396.5,92.5 396.2,91.5 396.4,90.9 C396.5,90.2 396.9,89.9 397.5,89.4 C398.1,88.8 399.0,87.8 399.7,87.5 C400.4,87.3 401.0,87.7 401.8,87.9 C402.5,88.1 403.6,88.3 404.2,88.6 C404.7,88.9 404.5,89.2 405.2,89.8 C405.9,90.4 407.9,91.3 408.4,92.1 C408.8,92.9 408.0,93.9 407.9,94.6 Z" fill="none" stroke="#2a2a2a" stroke-width="1.0" stroke-linecap="round" opacity="0.45"/><path d="M402.1,88.4 C401.7,87.9 400.5,86.0 399.8,85.0 C399.2,84.1 398.4,83.0 398.2,82.6 " fill="none" stroke="#2a2a2a" stroke-width="1.68" stroke-linecap="round" stroke-linejoin="round"/><path d="M504.8,96.0 C505.0,97.0 505.9,97.3 505.6,97.9 C505.3,98.4 503.6,99.0 503.1,99.3 C502.6,99.6 502.9,99.2 502.5,99.6 C502.1,100.0 501.5,101.4 500.7,101.8 C500.0,102.2 499.1,102.4 498.2,101.9 C497.3,101.5 496.1,99.7 495.4,99.0 C494.6,98.2 494.0,98.1 493.7,97.4 C493.5,96.7 493.9,95.3 493.9,94.6 C493.9,93.9 493.2,93.9 493.5,93.1 C493.9,92.3 495.2,90.3 496.0,89.8 C496.9,89.3 497.9,90.1 498.5,90.1 C499.1,90.0 499.1,89.5 499.8,89.4 C500.5,89.4 502.3,89.6 502.9,89.7 C503.5,89.7 503.0,89.6 503.3,89.9 C503.6,90.3 504.5,90.8 504.7,91.8 C505.0,92.8 504.7,95.0 504.8,96.0 Z" fill="#a6e05a" stroke="none" opacity="1.0"/><path d="M503.6,94.1 C503.5,95.1 503.5,96.3 503.3,97.1 C503.0,97.8 502.7,98.2 502.2,98.8 C501.6,99.3 500.6,99.9 500.0,100.2 C499.4,100.5 499.3,100.7 498.7,100.6 C498.0,100.5 497.0,99.8 496.1,99.5 C495.2,99.2 493.7,99.3 493.2,98.7 C492.7,98.1 493.2,96.8 493.1,96.1 C493.0,95.3 492.5,94.7 492.4,94.1 C492.4,93.5 492.6,93.3 492.8,92.4 C493.1,91.6 493.6,89.8 494.1,89.1 C494.6,88.5 495.2,88.6 495.8,88.5 C496.4,88.3 497.0,88.4 497.8,88.3 C498.5,88.2 499.5,87.6 500.2,87.9 C500.9,88.2 501.3,89.4 501.9,90.0 C502.5,90.6 503.4,90.6 503.7,91.3 C504.0,92.0 503.7,93.2 503.6,94.1 Z" fill="none" stroke="#2a2a2a" stroke-width="1.7999999999999998" stroke-linecap="round" stroke-linejoin="round"/><path d="M503.8,94.3 C503.8,95.0 504.6,94.9 504.3,95.6 C503.9,96.2 502.3,97.5 501.6,98.1 C500.8,98.6 500.5,98.6 499.8,98.8 C499.2,99.0 498.6,99.1 497.7,99.2 C496.8,99.3 495.3,99.5 494.6,99.3 C493.9,99.2 493.8,98.8 493.6,98.4 C493.4,98.1 493.6,97.9 493.3,97.1 C493.1,96.2 492.1,94.3 491.9,93.4 C491.8,92.5 492.3,92.1 492.7,91.7 C493.0,91.2 493.4,91.0 494.0,90.6 C494.7,90.3 495.6,89.8 496.4,89.5 C497.2,89.1 498.0,88.7 498.9,88.6 C499.7,88.5 500.9,88.8 501.6,89.1 C502.2,89.3 502.2,89.6 502.7,90.0 C503.2,90.4 504.3,90.9 504.5,91.7 C504.7,92.4 503.9,93.7 503.8,94.3 Z" fill="none" stroke="#2a2a2a" stroke-width="1.0" stroke-linecap="round" opacity="0.45"/><path d="M497.8,88.2 C498.1,87.8 498.9,86.8 499.6,85.9 C500.3,85.0 501.6,83.3 502.0,82.8 " fill="none" stroke="#2a2a2a" stroke-width="1.68" stroke-linecap="round" stroke-linejoin="round"/><path d="M473.4,90.5 C473.6,93.4 472.9,98.5 471.9,101.2 C470.8,104.0 469.2,105.4 467.3,107.2 C465.4,109.0 462.8,110.8 460.4,112.1 C458.0,113.4 455.6,114.9 452.7,115.0 C449.9,115.2 445.9,114.5 443.3,113.2 C440.7,111.8 439.0,109.0 436.9,106.9 C434.9,104.9 431.9,103.7 430.7,101.1 C429.6,98.4 429.9,93.9 430.0,90.9 C430.0,88.0 430.1,86.2 431.1,83.5 C432.2,80.7 434.2,76.8 436.2,74.4 C438.3,72.0 440.8,69.8 443.3,69.0 C445.8,68.1 448.5,69.1 451.3,69.3 C454.1,69.6 457.4,70.0 459.9,70.7 C462.4,71.4 464.5,71.5 466.3,73.7 C468.2,75.9 470.0,81.2 471.2,84.0 C472.4,86.8 473.3,87.6 473.4,90.5 Z" fill="#a6e05a" stroke="none" opacity="1.0"/><path d="M472.6,90.7 C472.3,93.6 470.8,97.0 469.7,99.6 C468.7,102.1 467.9,104.1 466.0,106.1 C464.2,108.2 461.5,110.7 458.7,111.9 C456.0,113.1 452.1,113.3 449.5,113.2 C446.8,113.2 445.2,112.8 442.8,111.7 C440.4,110.5 437.4,108.4 435.2,106.4 C433.0,104.3 430.7,102.1 429.5,99.4 C428.2,96.6 427.8,92.7 427.7,89.8 C427.7,87.0 428.1,85.0 429.2,82.4 C430.3,79.9 432.1,77.0 434.3,74.6 C436.5,72.1 439.6,69.2 442.2,67.9 C444.8,66.5 447.2,66.3 449.9,66.4 C452.5,66.5 455.7,67.1 458.3,68.3 C460.9,69.6 463.3,71.4 465.5,73.7 C467.6,76.1 470.0,79.4 471.2,82.2 C472.4,85.1 472.8,87.8 472.6,90.7 Z" fill="none" stroke="#2a2a2a" stroke-width="2.04" stroke-linecap="round" stroke-linejoin="round"/><path d="M471.4,89.4 C471.5,92.4 471.0,97.1 470.2,99.8 C469.3,102.5 468.3,103.6 466.2,105.5 C464.2,107.3 460.4,109.7 457.7,110.9 C455.1,112.1 452.7,112.4 450.2,112.6 C447.7,112.8 445.3,113.0 442.8,112.1 C440.3,111.3 437.5,109.2 435.3,107.3 C433.0,105.4 430.7,103.4 429.3,100.6 C427.9,97.7 426.9,93.3 427.1,90.1 C427.2,86.8 428.9,83.7 430.0,81.1 C431.1,78.5 431.6,76.7 433.6,74.5 C435.6,72.3 439.2,68.9 441.9,67.7 C444.5,66.5 446.8,67.2 449.4,67.2 C451.9,67.3 454.7,66.8 457.2,67.8 C459.7,68.8 462.4,70.9 464.4,73.2 C466.5,75.5 468.5,78.9 469.7,81.6 C470.9,84.3 471.3,86.4 471.4,89.4 Z" fill="none" stroke="#2a2a2a" stroke-width="1.1" stroke-linecap="round" opacity="0.45"/><path d="M448.2,68.8 C447.5,66.4 451.6,57.5 455.1,54.2 C458.7,51.0 467.3,48.3 469.2,49.2 C471.1,50.1 468.3,56.5 466.6,59.8 C464.9,63.0 462.1,67.0 459.0,68.5 C455.9,70.1 448.8,71.2 448.2,68.8 Z" fill="#8ccbf2" stroke="none" opacity="1.0"/><path d="M446.4,68.2 C445.7,65.7 449.6,56.0 453.0,52.6 C456.4,49.1 464.9,46.3 466.7,47.3 C468.6,48.3 465.7,55.1 464.1,58.5 C462.6,61.8 460.4,65.8 457.5,67.4 C454.5,69.0 447.1,70.6 446.4,68.2 Z" fill="none" stroke="#2a2a2a" stroke-width="1.7999999999999998" stroke-linecap="round" stroke-linejoin="round"/><path d="M446.8,68.2 C446.1,65.5 449.2,55.8 452.5,52.4 C455.9,49.0 465.2,46.8 467.0,47.7 C468.8,48.7 465.1,54.8 463.4,58.3 C461.6,61.8 459.4,67.2 456.6,68.8 C453.9,70.5 447.5,70.9 446.8,68.2 Z" fill="none" stroke="#2a2a2a" stroke-width="1.0" stroke-linecap="round" opacity="0.45"/><path d="M475.9,97.0 C475.9,97.4 477.0,97.7 477.1,97.8 C477.2,98.0 476.9,97.3 476.5,97.7 C476.1,98.1 475.0,99.8 474.6,100.0 C474.3,100.2 474.7,99.0 474.3,99.0 C473.9,99.0 472.5,100.2 472.1,100.0 C471.8,99.7 472.3,98.2 472.0,97.6 C471.7,97.1 470.7,97.0 470.4,96.7 C470.1,96.5 470.4,96.6 470.3,96.1 C470.1,95.6 469.4,94.2 469.7,93.9 C470.0,93.6 471.9,94.1 472.1,94.0 C472.4,93.9 470.9,93.6 471.2,93.5 C471.5,93.3 473.4,92.7 473.9,92.9 C474.4,93.1 473.7,94.3 474.1,94.5 C474.6,94.7 476.1,94.0 476.5,94.2 C477.0,94.4 476.9,95.1 476.8,95.5 C476.7,96.0 475.8,96.6 475.9,97.0 Z" fill="#ffd95a" stroke="none" opacity="1.0"/><path d="M475.1,94.6 C475.0,95.0 474.8,95.4 474.6,95.8 C474.4,96.1 474.0,96.2 473.9,96.5 C473.7,96.8 473.9,97.3 473.5,97.5 C473.1,97.7 471.7,97.5 471.3,97.5 C471.0,97.6 471.6,98.1 471.3,97.9 C471.0,97.7 469.8,96.7 469.4,96.4 C469.0,96.1 469.1,96.5 469.0,96.1 C469.0,95.8 469.1,94.6 469.2,94.3 C469.3,94.0 469.5,94.5 469.7,94.4 C469.8,94.2 469.8,94.0 470.0,93.6 C470.1,93.2 470.1,92.0 470.4,91.9 C470.6,91.7 470.9,92.6 471.5,92.6 C472.1,92.6 473.3,91.8 473.8,91.8 C474.3,91.8 474.3,92.4 474.5,92.7 C474.7,92.9 475.1,93.2 475.2,93.5 C475.3,93.8 475.2,94.3 475.1,94.6 Z" fill="none" stroke="#2a2a2a" stroke-width="1.56" stroke-linecap="round" stroke-linejoin="round"/><path d="M475.3,95.1 C475.4,95.8 475.1,96.7 475.0,97.0 C474.8,97.2 474.7,96.5 474.3,96.6 C474.0,96.6 473.1,97.1 472.8,97.3 C472.4,97.5 472.5,97.8 472.1,97.8 C471.8,97.8 471.1,97.5 470.8,97.4 C470.5,97.2 470.8,97.3 470.6,97.0 C470.3,96.8 469.4,96.4 469.1,95.9 C468.9,95.5 469.0,95.1 469.0,94.6 C469.0,94.0 469.0,93.2 469.2,92.8 C469.3,92.4 469.7,92.5 469.9,92.2 C470.1,92.0 470.3,91.5 470.5,91.4 C470.7,91.3 470.5,91.7 471.0,91.7 C471.5,91.7 472.8,91.1 473.5,91.2 C474.2,91.3 474.9,91.9 475.1,92.2 C475.2,92.6 474.3,92.8 474.3,93.3 C474.4,93.7 475.1,94.5 475.3,95.1 Z" fill="none" stroke="#2a2a2a" stroke-width="0.9" stroke-linecap="round" opacity="0.45"/><path d="M449.8,89.0 C449.6,90.1 449.2,91.8 448.8,92.4 C448.4,93.0 448.1,92.0 447.6,92.4 C447.1,92.8 446.3,94.3 445.5,94.9 C444.8,95.5 443.7,96.0 443.1,96.0 C442.5,96.0 442.6,95.0 442.0,94.7 C441.5,94.4 440.8,94.5 440.0,94.1 C439.2,93.6 437.9,92.8 437.3,92.0 C436.7,91.2 436.2,90.4 436.4,89.5 C436.6,88.6 438.4,87.4 438.7,86.6 C438.9,85.7 437.8,85.1 438.1,84.2 C438.4,83.3 439.5,81.7 440.6,81.2 C441.7,80.7 443.6,81.1 444.7,81.3 C445.8,81.5 446.5,82.0 447.2,82.3 C447.9,82.7 448.3,83.1 448.8,83.6 C449.3,84.2 450.1,84.9 450.3,85.8 C450.4,86.7 450.1,87.9 449.8,89.0 Z" fill="#fffdf6" stroke="none" opacity="1.0"/><path d="M447.8,86.9 C447.8,87.9 447.7,88.5 447.6,89.5 C447.4,90.4 447.3,92.1 446.9,92.8 C446.4,93.6 445.6,93.7 444.8,93.9 C444.1,94.2 443.1,94.4 442.4,94.2 C441.7,94.0 441.5,93.3 440.6,93.0 C439.8,92.6 438.2,92.7 437.4,92.0 C436.6,91.3 436.0,89.5 435.8,88.8 C435.6,88.0 436.0,88.1 436.3,87.4 C436.5,86.8 436.7,85.8 437.1,84.8 C437.4,83.9 438.0,82.5 438.4,81.8 C438.7,81.0 438.8,80.9 439.3,80.5 C439.8,80.1 440.5,79.3 441.3,79.3 C442.1,79.4 443.2,80.3 444.1,80.7 C445.0,81.2 446.3,81.5 446.9,82.0 C447.4,82.5 447.5,82.9 447.6,83.7 C447.8,84.5 447.8,86.0 447.8,86.9 Z" fill="none" stroke="#2a2a2a" stroke-width="1.7999999999999998" stroke-linecap="round" stroke-linejoin="round"/><path d="M448.9,87.7 C448.9,88.5 447.7,88.1 447.3,88.8 C446.9,89.5 447.0,91.2 446.6,91.9 C446.2,92.6 445.4,92.5 444.8,92.9 C444.1,93.3 443.5,94.2 442.7,94.2 C441.9,94.3 440.8,93.8 439.9,93.4 C439.0,92.9 438.0,92.3 437.4,91.7 C436.7,91.1 436.4,90.5 436.0,89.6 C435.6,88.7 434.9,87.2 435.1,86.2 C435.3,85.3 436.8,84.3 437.1,83.7 C437.3,83.2 436.3,83.5 436.6,83.0 C437.0,82.6 438.3,81.4 439.1,81.1 C440.0,80.8 440.9,81.2 441.7,81.0 C442.4,80.8 442.7,80.0 443.6,80.0 C444.4,80.1 446.0,80.7 446.6,81.3 C447.2,82.0 446.8,82.9 447.2,84.0 C447.6,85.1 448.9,86.9 448.9,87.7 Z" fill="none" stroke="#2a2a2a" stroke-width="1.0" stroke-linecap="round" opacity="0.45"/><path d="M465.1,88.7 C464.9,89.7 464.3,91.5 464.2,92.3 C464.2,93.0 465.0,92.8 464.8,93.1 C464.5,93.4 463.6,93.8 462.6,94.0 C461.6,94.2 459.6,94.0 458.6,94.1 C457.6,94.2 457.3,94.9 456.7,94.7 C456.0,94.4 455.1,93.3 454.8,92.6 C454.5,91.9 455.0,91.3 454.7,90.5 C454.4,89.7 453.4,88.5 453.1,87.9 C452.8,87.3 452.4,87.9 452.8,86.9 C453.3,86.0 455.2,83.2 455.7,82.3 C456.3,81.3 455.5,81.5 456.0,81.2 C456.6,81.0 457.7,80.4 458.8,80.7 C459.9,80.9 461.6,82.5 462.5,82.7 C463.5,83.0 464.1,81.7 464.7,82.3 C465.2,82.9 465.7,85.3 465.8,86.3 C465.9,87.4 465.4,87.7 465.1,88.7 Z" fill="#fffdf6" stroke="none" opacity="1.0"/><path d="M464.1,86.7 C464.1,87.5 464.0,88.2 463.7,89.2 C463.4,90.1 462.8,91.6 462.3,92.4 C461.8,93.2 461.3,93.7 460.8,93.9 C460.2,94.1 459.8,93.8 458.9,93.7 C457.9,93.5 455.9,93.5 455.1,93.1 C454.3,92.8 454.6,92.1 454.1,91.6 C453.6,91.1 452.2,91.0 451.9,90.1 C451.7,89.2 452.4,87.3 452.4,86.3 C452.5,85.3 452.3,84.9 452.5,84.3 C452.7,83.6 452.9,83.0 453.5,82.4 C454.1,81.7 455.4,80.8 456.1,80.4 C456.8,79.9 456.7,79.6 457.6,79.6 C458.4,79.5 460.2,79.6 461.0,80.0 C461.8,80.4 462.0,81.3 462.5,82.0 C463.0,82.8 463.8,83.6 464.1,84.4 C464.3,85.2 464.2,85.9 464.1,86.7 Z" fill="none" stroke="#2a2a2a" stroke-width="1.7999999999999998" stroke-linecap="round" stroke-linejoin="round"/><path d="M464.6,88.2 C464.5,89.1 462.9,89.2 462.7,89.9 C462.4,90.6 463.4,92.0 463.1,92.6 C462.9,93.3 462.0,93.6 461.2,93.8 C460.4,93.9 459.2,93.7 458.3,93.5 C457.3,93.3 456.3,92.7 455.6,92.5 C454.9,92.2 454.3,92.2 454.0,91.9 C453.6,91.7 453.8,91.7 453.4,90.8 C453.1,90.0 451.9,87.9 451.9,86.8 C451.8,85.7 452.9,85.2 453.2,84.3 C453.5,83.4 453.4,82.0 453.9,81.4 C454.4,80.8 455.6,81.3 456.3,80.9 C457.0,80.5 457.3,78.8 458.0,78.9 C458.6,79.0 459.2,80.6 460.1,81.3 C460.9,82.0 462.6,82.7 463.1,83.3 C463.6,83.8 462.9,83.7 463.1,84.5 C463.4,85.3 464.7,87.3 464.6,88.2 Z" fill="none" stroke="#2a2a2a" stroke-width="1.0" stroke-linecap="round" opacity="0.45"/><circle cx="442.8" cy="87.2" r="2.4" fill="#2a2a2a"/><circle cx="458.9" cy="86.6" r="2.4" fill="#2a2a2a"/><path d="M442.6,98.7 C441.4,100.2 449.5,108.7 452.3,108.8 C455.1,108.9 461.3,101.1 459.7,99.4 C458.1,97.7 443.8,97.1 442.6,98.7 Z" fill="#ff9bb0" stroke="none" opacity="1.0"/><path d="M441.1,97.9 C439.6,99.3 446.5,106.7 449.4,106.8 C452.3,106.9 459.9,100.1 458.5,98.6 C457.1,97.1 442.6,96.5 441.1,97.9 Z" fill="none" stroke="#2a2a2a" stroke-width="1.7999999999999998" stroke-linecap="round" stroke-linejoin="round"/><path d="M440.3,97.2 C438.8,98.6 446.6,106.9 449.6,107.1 C452.7,107.3 460.2,100.1 458.7,98.4 C457.1,96.8 441.8,95.8 440.3,97.2 Z" fill="none" stroke="#2a2a2a" stroke-width="1.0" stroke-linecap="round" opacity="0.45"/><path d="M117.2,334.7 C116.9,338.1 115.5,348.3 115.0,355.3 C114.6,362.4 114.7,373.5 114.6,377.1 " fill="none" stroke="#2a2a2a" stroke-width="3.4" stroke-linecap="round" stroke-linejoin="round"/><path d="M115.1,335.3 C115.4,338.9 117.1,349.8 116.9,357.0 C116.7,364.1 114.4,374.7 113.9,378.3 " fill="none" stroke="#2a2a2a" stroke-width="1.9" stroke-linecap="round" opacity="0.45"/><path d="M143.8,335.7 C143.8,339.1 143.1,349.3 143.4,356.1 C143.7,363.0 145.1,373.4 145.5,376.8 " fill="none" stroke="#2a2a2a" stroke-width="3.4" stroke-linecap="round" stroke-linejoin="round"/><path d="M142.6,334.2 C142.9,338.0 144.0,350.1 144.5,357.3 C145.0,364.5 145.5,374.1 145.7,377.4 " fill="none" stroke="#2a2a2a" stroke-width="1.9" stroke-linecap="round" opacity="0.45"/><path d="M120.4,285.3 C125.6,282.1 127.6,286.6 131.7,286.5 C135.9,286.3 139.7,281.7 145.2,284.5 C150.7,287.3 161.9,298.0 164.8,303.2 C167.6,308.4 162.2,311.1 162.2,315.7 C162.1,320.3 167.3,325.8 164.6,330.7 C161.8,335.7 151.1,342.9 145.6,345.3 C140.2,347.8 135.9,345.3 131.6,345.5 C127.3,345.6 125.1,348.6 120.0,346.1 C114.9,343.5 104.1,334.9 100.9,330.2 C97.6,325.5 100.3,322.0 100.2,318.0 C100.2,313.9 97.3,311.2 100.6,305.8 C104.0,300.4 115.2,288.6 120.4,285.3 Z" fill="#ff9d5c" stroke="none" opacity="1.0"/><path d="M117.8,284.8 C123.0,281.7 125.3,284.2 129.5,284.2 C133.7,284.2 137.9,282.2 143.1,285.0 C148.3,287.8 157.5,296.3 160.6,301.1 C163.7,305.8 161.7,309.4 161.8,313.7 C161.8,318.0 163.9,321.9 160.8,327.0 C157.7,332.1 148.3,341.4 143.0,344.3 C137.7,347.3 133.4,344.7 129.0,344.8 C124.7,344.8 121.6,347.3 116.6,344.4 C111.6,341.5 101.8,332.2 99.1,327.3 C96.4,322.3 100.6,318.9 100.5,314.9 C100.4,310.9 95.5,308.1 98.4,303.0 C101.3,298.0 112.6,288.0 117.8,284.8 Z" fill="none" stroke="#2a2a2a" stroke-width="3.4" stroke-linecap="round" stroke-linejoin="round"/><path d="M119.1,282.6 C124.1,279.7 126.7,284.0 130.8,284.4 C134.8,284.7 138.3,281.6 143.2,284.6 C148.1,287.7 156.9,297.8 160.0,302.7 C163.1,307.6 161.8,309.8 161.7,314.1 C161.6,318.3 162.6,322.8 159.4,328.2 C156.3,333.7 147.9,344.2 142.8,346.8 C137.6,349.3 132.8,343.9 128.7,343.6 C124.5,343.3 122.9,347.8 117.9,345.1 C112.9,342.4 101.5,332.6 98.6,327.4 C95.8,322.2 100.5,318.3 100.8,313.9 C101.1,309.6 97.2,306.7 100.3,301.4 C103.3,296.2 114.0,285.4 119.1,282.6 Z" fill="none" stroke="#2a2a2a" stroke-width="1.9" stroke-linecap="round" opacity="0.45"/><path d="M100.0,299.3 C98.3,302.3 93.1,311.5 90.1,317.6 C87.2,323.7 83.7,332.7 82.4,335.8 " fill="none" stroke="#2a2a2a" stroke-width="3.4" stroke-linecap="round" stroke-linejoin="round"/><path d="M100.9,298.2 C99.2,301.5 93.9,312.1 90.7,318.1 C87.4,324.0 82.9,331.2 81.4,333.8 " fill="none" stroke="#2a2a2a" stroke-width="1.9" stroke-linecap="round" opacity="0.45"/><path d="M161.7,298.4 C162.9,301.6 166.4,311.4 169.1,317.5 C171.8,323.6 176.5,332.0 177.9,334.9 " fill="none" stroke="#2a2a2a" stroke-width="3.4" stroke-linecap="round" stroke-linejoin="round"/><path d="M161.0,298.5 C162.5,301.5 167.1,310.9 169.7,316.7 C172.4,322.6 175.6,330.8 176.8,333.6 " fill="none" stroke="#2a2a2a" stroke-width="1.9" stroke-linecap="round" opacity="0.45"/><path d="M162.2,253.0 C162.0,257.7 162.8,262.7 161.2,266.5 C159.7,270.4 155.8,273.6 152.6,276.1 C149.4,278.6 145.6,280.2 142.0,281.6 C138.5,283.0 134.5,284.3 131.1,284.5 C127.6,284.7 125.3,284.8 121.5,282.8 C117.7,280.8 111.1,275.5 108.2,272.6 C105.3,269.7 105.1,268.6 103.9,265.6 C102.7,262.5 101.1,258.4 100.9,254.1 C100.8,249.9 101.1,244.6 103.0,240.1 C104.9,235.6 109.9,230.4 112.4,227.2 C114.9,224.0 114.2,222.1 117.9,221.1 C121.6,220.1 130.6,221.3 134.7,221.2 C138.9,221.0 139.4,218.4 142.7,220.1 C146.0,221.8 151.4,228.5 154.7,231.5 C158.0,234.4 161.2,234.3 162.5,237.9 C163.7,241.4 162.4,248.2 162.2,253.0 Z" fill="#f6d2b0" stroke="none" opacity="1.0"/><path d="M159.8,249.8 C160.0,254.1 159.5,260.0 158.2,263.7 C157.0,267.4 155.1,269.2 152.2,272.1 C149.4,274.9 144.6,278.9 141.1,280.7 C137.6,282.6 135.0,283.4 131.1,283.3 C127.2,283.2 121.5,282.3 117.5,280.3 C113.6,278.3 109.9,274.2 107.4,271.2 C104.9,268.1 103.9,265.3 102.5,261.9 C101.1,258.5 99.2,254.7 98.9,251.0 C98.6,247.2 98.9,243.5 100.6,239.4 C102.3,235.2 106.0,229.1 108.8,225.9 C111.7,222.6 113.8,221.1 117.7,219.8 C121.5,218.5 128.1,218.4 131.9,218.3 C135.6,218.2 136.7,217.5 140.2,219.2 C143.7,220.9 150.1,225.3 152.9,228.5 C155.8,231.7 155.9,234.7 157.1,238.2 C158.2,241.8 159.6,245.6 159.8,249.8 Z" fill="none" stroke="#2a2a2a" stroke-width="3.4" stroke-linecap="round" stroke-linejoin="round"/><path d="M160.4,249.8 C160.4,253.8 159.1,258.2 157.9,262.1 C156.6,266.0 156.0,270.4 152.9,273.3 C149.8,276.2 142.7,277.8 139.1,279.6 C135.6,281.3 134.8,283.5 131.5,283.6 C128.3,283.8 123.5,282.3 119.5,280.6 C115.4,278.8 110.2,275.8 107.3,273.0 C104.4,270.3 103.5,267.5 102.0,264.0 C100.6,260.5 98.7,256.4 98.7,251.9 C98.7,247.5 100.2,241.6 101.8,237.4 C103.4,233.2 106.2,229.4 108.6,226.7 C111.0,224.0 112.6,222.9 116.2,221.2 C119.9,219.5 126.0,216.5 130.3,216.6 C134.6,216.6 138.4,219.5 142.2,221.5 C146.0,223.4 150.6,225.5 153.2,228.2 C155.9,230.9 156.9,234.1 158.1,237.7 C159.3,241.3 160.5,245.7 160.4,249.8 Z" fill="none" stroke="#2a2a2a" stroke-width="1.9" stroke-linecap="round" opacity="0.45"/><path d="M102.7,249.9 C99.5,248.7 103.9,231.7 107.8,226.3 C111.7,220.9 118.9,217.9 126.0,217.3 C133.1,216.7 144.3,218.2 150.6,222.9 C156.8,227.5 164.0,243.0 163.7,245.1 C163.4,247.1 154.9,237.2 148.8,235.2 C142.6,233.3 134.7,230.8 127.0,233.2 C119.3,235.7 105.9,251.1 102.7,249.9 Z" fill="#c99a6b" stroke="none" opacity="1.0"/><path d="M100.1,247.1 C97.2,245.9 100.9,230.1 104.9,224.8 C108.9,219.5 117.0,215.9 124.2,215.2 C131.3,214.4 141.8,215.4 147.7,220.2 C153.7,224.9 160.2,241.5 160.1,243.5 C160.1,245.6 153.9,234.2 147.6,232.3 C141.3,230.3 130.4,229.2 122.4,231.7 C114.5,234.2 103.0,248.2 100.1,247.1 Z" fill="none" stroke="#2a2a2a" stroke-width="3.0" stroke-linecap="round" stroke-linejoin="round"/><path d="M99.6,247.7 C96.4,246.6 100.7,230.6 104.8,224.9 C109.0,219.1 117.0,214.1 124.4,213.4 C131.7,212.7 143.0,215.8 149.1,220.7 C155.1,225.6 160.8,240.6 160.6,242.8 C160.5,244.9 154.3,235.5 148.2,233.7 C142.1,231.9 132.1,229.6 124.0,231.9 C115.9,234.3 102.8,248.9 99.6,247.7 Z" fill="none" stroke="#2a2a2a" stroke-width="1.7" stroke-linecap="round" opacity="0.45"/><circle cx="118.7" cy="252.3" r="3.5" fill="#2a2a2a"/><circle cx="141.0" cy="251.7" r="3.5" fill="#2a2a2a"/><path d="M119.4,266.4 C121.3,268.0 127.0,275.8 130.6,276.0 C134.3,276.1 139.5,268.7 141.2,267.3 " fill="none" stroke="#2a2a2a" stroke-width="2.8" stroke-linecap="round" stroke-linejoin="round"/><path d="M119.1,266.6 C121.0,268.4 127.2,277.4 130.5,277.2 C133.8,277.0 137.5,267.4 138.9,265.5 " fill="none" stroke="#2a2a2a" stroke-width="1.5" stroke-linecap="round" opacity="0.45"/><path d="M128.2,252.5 C128.2,253.4 128.8,253.9 128.3,254.9 C127.9,255.9 126.3,257.7 125.5,258.4 C124.6,259.1 124.3,259.0 123.1,259.2 C122.0,259.5 119.8,260.1 118.5,260.0 C117.1,260.0 115.8,259.2 115.0,258.9 C114.1,258.7 114.0,259.2 113.1,258.3 C112.2,257.5 110.0,255.1 109.5,254.0 C108.9,252.9 109.6,252.6 109.7,251.6 C109.9,250.5 110.0,248.7 110.2,247.9 C110.4,247.1 110.4,247.3 111.1,246.6 C111.7,245.9 112.8,244.4 114.1,243.8 C115.4,243.2 117.7,243.1 119.0,242.9 C120.2,242.7 120.4,242.1 121.7,242.7 C123.0,243.3 125.7,245.2 126.8,246.3 C127.9,247.4 128.1,248.4 128.4,249.4 C128.6,250.4 128.2,251.6 128.2,252.5 Z" fill="none" stroke="#2a2a2a" stroke-width="2.6" stroke-linecap="round" stroke-linejoin="round"/><path d="M150.7,251.5 C150.8,252.6 151.1,252.9 150.6,254.1 C150.1,255.3 148.8,257.7 147.7,258.5 C146.6,259.2 144.9,258.4 143.9,258.6 C142.9,258.7 142.4,259.3 141.5,259.6 C140.5,259.8 139.2,260.3 138.2,260.2 C137.1,260.0 136.3,259.6 135.2,258.7 C134.0,257.8 131.9,256.3 131.4,255.0 C130.8,253.7 131.7,252.1 132.1,250.8 C132.5,249.6 133.3,248.3 133.7,247.4 C134.2,246.4 133.8,245.8 134.5,245.4 C135.2,244.9 137.0,244.9 138.2,244.7 C139.3,244.4 139.9,243.9 141.2,243.8 C142.5,243.6 144.8,243.7 145.7,243.9 C146.7,244.1 146.2,244.4 147.0,244.9 C147.7,245.5 149.7,246.2 150.3,247.3 C150.9,248.4 150.7,250.3 150.7,251.5 Z" fill="none" stroke="#2a2a2a" stroke-width="2.6" stroke-linecap="round" stroke-linejoin="round"/><path d="M128.0,251.3 C128.3,251.2 129.5,250.9 130.1,251.0 C130.6,251.2 131.0,251.8 131.2,252.0 " fill="none" stroke="#2a2a2a" stroke-width="2.6" stroke-linecap="round" stroke-linejoin="round"/><path d="M306.4,335.6 C306.3,339.0 306.0,349.2 305.6,356.1 C305.3,363.0 304.5,373.6 304.3,377.2 " fill="none" stroke="#2a2a2a" stroke-width="3.4" stroke-linecap="round" stroke-linejoin="round"/><path d="M307.5,333.6 C307.3,337.4 306.7,349.2 306.2,356.3 C305.8,363.4 305.0,372.9 304.7,376.3 " fill="none" stroke="#2a2a2a" stroke-width="1.9" stroke-linecap="round" opacity="0.45"/><path d="M334.1,334.8 C334.3,338.3 334.6,348.7 334.9,355.7 C335.2,362.6 335.8,373.0 336.0,376.5 " fill="none" stroke="#2a2a2a" stroke-width="3.4" stroke-linecap="round" stroke-linejoin="round"/><path d="M333.0,333.9 C333.4,337.6 334.9,348.9 335.6,356.3 C336.2,363.6 336.6,374.4 336.8,378.0 " fill="none" stroke="#2a2a2a" stroke-width="1.9" stroke-linecap="round" opacity="0.45"/><path d="M311.7,285.6 C316.8,282.6 318.3,287.8 322.4,287.7 C326.5,287.6 331.1,282.4 336.4,285.2 C341.6,288.0 351.0,299.1 353.9,304.5 C356.8,310.0 354.2,313.9 353.8,317.8 C353.4,321.8 354.8,323.8 351.6,328.5 C348.3,333.2 339.3,342.7 334.3,346.1 C329.3,349.6 326.0,348.9 321.6,349.0 C317.2,349.1 312.6,349.7 308.0,346.7 C303.4,343.7 296.4,335.9 293.7,331.0 C291.1,326.1 292.5,321.5 292.2,317.3 C291.9,313.0 288.8,311.0 292.0,305.8 C295.3,300.5 306.6,288.6 311.7,285.6 Z" fill="#a6e05a" stroke="none" opacity="1.0"/><path d="M308.2,284.5 C313.3,281.4 316.3,283.2 320.4,283.3 C324.4,283.3 327.6,281.8 332.5,284.8 C337.5,287.9 347.1,296.3 350.2,301.4 C353.3,306.5 351.2,311.3 351.2,315.5 C351.3,319.7 353.8,321.6 350.6,326.6 C347.4,331.6 337.2,342.5 332.1,345.4 C326.9,348.4 323.6,344.2 319.5,344.3 C315.4,344.3 312.5,348.2 307.6,345.6 C302.8,342.9 293.2,333.7 290.3,328.4 C287.3,323.1 290.2,317.9 290.0,313.6 C289.9,309.2 286.5,306.9 289.5,302.0 C292.5,297.2 303.0,287.7 308.2,284.5 Z" fill="none" stroke="#2a2a2a" stroke-width="3.4" stroke-linecap="round" stroke-linejoin="round"/><path d="M307.9,284.1 C312.8,281.2 315.0,284.3 319.2,284.4 C323.3,284.6 327.5,281.8 332.6,284.9 C337.7,288.1 346.7,298.2 349.9,303.2 C353.1,308.3 351.7,310.9 351.7,315.0 C351.7,319.1 352.6,322.6 349.7,327.7 C346.8,332.8 338.8,342.8 334.1,345.9 C329.4,349.0 325.8,346.5 321.3,346.4 C316.8,346.2 312.3,348.3 306.9,345.0 C301.4,341.8 291.3,331.9 288.7,326.8 C286.1,321.7 290.9,318.8 291.0,314.6 C291.2,310.4 286.9,306.7 289.8,301.6 C292.6,296.6 303.0,287.0 307.9,284.1 Z" fill="none" stroke="#2a2a2a" stroke-width="1.9" stroke-linecap="round" opacity="0.45"/><path d="M290.5,298.3 C288.8,301.6 283.5,311.9 280.6,318.1 C277.7,324.3 274.3,332.6 273.0,335.5 " fill="none" stroke="#2a2a2a" stroke-width="3.4" stroke-linecap="round" stroke-linejoin="round"/><path d="M288.7,299.7 C287.2,302.8 282.3,311.8 279.6,317.9 C276.8,323.9 273.5,332.9 272.3,335.9 " fill="none" stroke="#2a2a2a" stroke-width="1.9" stroke-linecap="round" opacity="0.45"/><path d="M349.9,299.4 C351.5,302.4 356.6,311.6 359.4,317.5 C362.3,323.5 365.9,332.2 367.2,335.1 " fill="none" stroke="#2a2a2a" stroke-width="3.4" stroke-linecap="round" stroke-linejoin="round"/><path d="M351.6,298.8 C352.6,302.0 355.2,311.9 357.6,318.1 C360.0,324.3 364.7,333.0 366.2,336.0 " fill="none" stroke="#2a2a2a" stroke-width="1.9" stroke-linecap="round" opacity="0.45"/><path d="M351.8,250.6 C351.7,254.5 351.2,259.9 349.7,263.7 C348.2,267.5 345.4,270.7 342.8,273.4 C340.2,276.1 337.5,278.4 334.2,280.0 C330.8,281.6 326.5,282.7 322.7,283.0 C318.9,283.3 315.3,283.1 311.5,281.9 C307.7,280.7 302.5,279.3 299.8,275.9 C297.0,272.6 296.0,265.5 294.9,261.7 C293.8,257.9 293.0,256.6 293.2,253.2 C293.3,249.7 294.4,245.5 295.9,241.1 C297.5,236.7 299.9,230.2 302.6,226.9 C305.3,223.6 308.8,222.2 312.1,221.2 C315.4,220.1 318.9,220.5 322.2,220.5 C325.5,220.6 328.6,220.5 331.9,221.6 C335.2,222.6 338.8,223.7 341.9,226.9 C345.0,230.0 349.0,236.5 350.6,240.5 C352.3,244.5 352.0,246.7 351.8,250.6 Z" fill="#f6d2b0" stroke="none" opacity="1.0"/><path d="M351.5,249.7 C351.8,253.6 350.9,256.8 349.3,260.8 C347.7,264.8 344.7,270.3 341.8,273.7 C338.9,277.0 335.3,279.4 331.8,280.8 C328.3,282.1 324.9,282.1 320.9,281.7 C316.8,281.4 311.1,280.4 307.4,278.8 C303.7,277.2 301.3,275.3 298.6,272.3 C295.8,269.3 292.6,264.2 291.1,260.7 C289.6,257.3 289.2,255.1 289.4,251.4 C289.6,247.8 290.8,242.8 292.3,238.8 C293.8,234.9 295.5,230.7 298.3,227.7 C301.1,224.6 305.1,222.2 309.0,220.5 C312.9,218.8 318.0,217.9 321.8,217.8 C325.6,217.6 328.5,218.5 331.9,219.7 C335.3,221.0 339.5,222.5 342.0,225.4 C344.6,228.4 345.8,233.5 347.4,237.5 C348.9,241.6 351.2,245.8 351.5,249.7 Z" fill="none" stroke="#2a2a2a" stroke-width="3.4" stroke-linecap="round" stroke-linejoin="round"/><path d="M350.8,250.8 C350.7,254.8 348.8,258.4 347.5,262.1 C346.1,265.8 345.0,269.9 342.6,273.1 C340.2,276.2 337.1,279.2 333.1,281.0 C329.1,282.7 322.7,283.7 318.7,283.5 C314.7,283.3 313.0,281.7 309.2,279.7 C305.5,277.6 299.1,274.1 296.1,271.1 C293.2,268.1 292.3,265.1 291.3,261.5 C290.3,257.9 290.2,253.1 290.1,249.4 C290.0,245.8 289.4,243.4 290.6,239.5 C291.8,235.7 294.4,229.7 297.4,226.2 C300.5,222.7 305.3,220.0 309.0,218.7 C312.7,217.4 316.0,218.2 319.5,218.3 C323.1,218.4 326.6,218.1 330.2,219.4 C333.8,220.7 337.9,222.8 340.9,225.9 C343.8,229.1 346.2,234.0 347.9,238.2 C349.6,242.3 350.9,246.8 350.8,250.8 Z" fill="none" stroke="#2a2a2a" stroke-width="1.9" stroke-linecap="round" opacity="0.45"/><path d="M292.4,247.4 C289.1,246.4 292.7,231.6 296.7,226.5 C300.7,221.3 309.1,217.3 316.5,216.5 C323.9,215.6 334.7,216.6 341.0,221.6 C347.3,226.6 354.6,244.6 354.2,246.6 C353.8,248.7 344.7,236.2 338.5,233.8 C332.2,231.3 324.3,229.7 316.6,232.0 C308.9,234.2 295.8,248.3 292.4,247.4 Z" fill="#5a3b22" stroke="none" opacity="1.0"/><path d="M290.1,246.8 C286.8,245.6 289.4,229.2 293.6,223.9 C297.9,218.7 307.9,215.9 315.5,215.0 C323.0,214.2 332.9,214.1 338.8,218.7 C344.7,223.3 351.5,240.1 351.1,242.7 C350.6,245.2 342.3,235.8 336.0,233.9 C329.7,231.9 320.9,228.9 313.2,231.0 C305.6,233.2 293.3,247.9 290.1,246.8 Z" fill="none" stroke="#2a2a2a" stroke-width="3.0" stroke-linecap="round" stroke-linejoin="round"/><path d="M288.8,246.2 C285.7,245.1 290.6,231.3 295.0,225.8 C299.4,220.3 307.7,214.2 315.0,213.0 C322.3,211.9 332.8,213.8 338.9,218.8 C344.9,223.8 351.6,241.0 351.3,243.2 C350.9,245.4 343.0,233.8 336.8,232.0 C330.5,230.1 321.8,229.6 313.8,231.9 C305.8,234.3 291.9,247.2 288.8,246.2 Z" fill="none" stroke="#2a2a2a" stroke-width="1.7" stroke-linecap="round" opacity="0.45"/><circle cx="309.5" cy="252.1" r="3.5" fill="#2a2a2a"/><circle cx="330.8" cy="251.2" r="3.5" fill="#2a2a2a"/><path d="M310.9,267.0 C312.4,268.4 317.1,275.2 320.3,275.3 C323.6,275.5 328.6,269.4 330.2,268.2 " fill="none" stroke="#2a2a2a" stroke-width="2.8" stroke-linecap="round" stroke-linejoin="round"/><path d="M310.7,267.9 C312.4,269.0 318.0,274.5 321.1,274.1 C324.2,273.7 328.1,267.1 329.5,265.7 " fill="none" stroke="#2a2a2a" stroke-width="1.5" stroke-linecap="round" opacity="0.45"/><path d="M565.9,334.1 C565.7,337.7 565.0,348.5 564.7,355.7 C564.4,362.8 564.2,373.5 564.1,377.1 " fill="none" stroke="#2a2a2a" stroke-width="3.4" stroke-linecap="round" stroke-linejoin="round"/><path d="M567.0,334.2 C566.7,338.1 566.0,350.1 565.6,357.5 C565.1,365.0 564.5,375.3 564.3,378.8 " fill="none" stroke="#2a2a2a" stroke-width="1.9" stroke-linecap="round" opacity="0.45"/><path d="M592.8,334.0 C593.1,337.5 593.9,347.9 594.4,355.2 C594.9,362.4 595.7,373.9 596.0,377.6 " fill="none" stroke="#2a2a2a" stroke-width="3.4" stroke-linecap="round" stroke-linejoin="round"/><path d="M594.4,333.5 C594.2,337.0 593.4,347.6 593.4,354.8 C593.3,362.0 594.0,373.0 594.1,376.7 " fill="none" stroke="#2a2a2a" stroke-width="1.9" stroke-linecap="round" opacity="0.45"/><path d="M571.1,285.9 C576.5,282.7 579.9,286.3 584.2,286.2 C588.4,286.0 591.3,282.3 596.4,285.0 C601.6,287.8 612.3,297.1 614.9,302.6 C617.6,308.2 612.9,313.8 612.5,318.0 C612.2,322.3 616.1,323.3 613.0,328.2 C609.8,333.0 598.8,343.7 593.6,346.9 C588.5,350.1 585.8,347.2 582.1,347.3 C578.4,347.4 576.4,350.8 571.5,347.5 C566.6,344.3 556.1,333.0 552.7,327.6 C549.4,322.3 551.7,319.1 551.6,315.4 C551.5,311.8 549.0,310.7 552.3,305.8 C555.6,300.8 565.8,289.2 571.1,285.9 Z" fill="#c3a6f0" stroke="none" opacity="1.0"/><path d="M568.3,284.0 C573.1,281.2 575.0,284.6 579.0,284.5 C582.9,284.5 586.8,280.8 592.2,283.8 C597.5,286.9 607.7,297.9 611.0,303.0 C614.2,308.2 612.0,310.5 611.8,314.8 C611.5,319.0 612.8,323.2 609.6,328.4 C606.4,333.6 597.5,342.9 592.6,345.7 C587.8,348.6 584.6,345.3 580.5,345.2 C576.5,345.1 573.5,348.3 568.5,345.2 C563.4,342.0 553.2,331.2 550.2,326.2 C547.1,321.1 550.0,318.9 550.0,314.7 C549.9,310.5 546.7,306.3 549.7,301.1 C552.8,296.0 563.4,286.7 568.3,284.0 Z" fill="none" stroke="#2a2a2a" stroke-width="3.4" stroke-linecap="round" stroke-linejoin="round"/><path d="M568.6,283.7 C573.9,280.8 575.8,285.4 579.9,285.4 C583.9,285.4 587.8,280.9 593.1,283.9 C598.3,286.8 608.3,298.1 611.4,303.0 C614.5,307.9 611.9,309.2 611.8,313.3 C611.6,317.3 614.0,322.0 610.6,327.3 C607.3,332.5 596.9,341.6 591.8,344.7 C586.8,347.9 584.4,345.8 580.3,346.1 C576.2,346.3 572.6,349.5 567.4,346.3 C562.3,343.0 552.4,331.9 549.4,326.5 C546.5,321.1 550.0,317.7 549.7,313.7 C549.5,309.8 544.9,307.9 548.0,302.9 C551.1,297.9 563.3,286.6 568.6,283.7 Z" fill="none" stroke="#2a2a2a" stroke-width="1.9" stroke-linecap="round" opacity="0.45"/><path d="M549.8,298.8 C548.4,301.8 544.2,310.5 541.4,316.7 C538.5,322.9 534.3,332.8 532.9,336.0 " fill="none" stroke="#2a2a2a" stroke-width="3.4" stroke-linecap="round" stroke-linejoin="round"/><path d="M548.4,298.3 C547.3,301.7 544.4,312.7 541.8,318.7 C539.2,324.7 534.4,331.7 532.9,334.3 " fill="none" stroke="#2a2a2a" stroke-width="1.9" stroke-linecap="round" opacity="0.45"/><path d="M609.6,300.3 C611.1,303.2 616.0,312.3 619.0,318.2 C622.1,324.1 626.4,332.6 627.9,335.5 " fill="none" stroke="#2a2a2a" stroke-width="3.4" stroke-linecap="round" stroke-linejoin="round"/><path d="M610.6,298.9 C612.1,302.2 617.1,312.1 619.9,318.4 C622.7,324.6 626.2,333.4 627.5,336.4 " fill="none" stroke="#2a2a2a" stroke-width="1.9" stroke-linecap="round" opacity="0.45"/><path d="M614.0,250.7 C614.3,255.6 613.2,263.1 611.6,267.0 C610.1,270.9 607.6,271.7 604.9,274.2 C602.2,276.8 599.4,280.7 595.4,282.3 C591.4,283.9 584.9,283.8 580.9,283.6 C576.8,283.3 574.5,282.1 571.1,280.6 C567.7,279.1 563.5,277.1 560.5,274.6 C557.4,272.1 554.0,269.4 552.7,265.5 C551.5,261.7 552.5,255.7 552.9,251.6 C553.4,247.6 554.0,244.8 555.5,241.2 C557.0,237.6 559.4,233.4 562.0,229.9 C564.5,226.5 567.1,222.5 570.6,220.6 C574.1,218.7 579.1,218.1 582.9,218.6 C586.6,219.0 589.8,221.6 593.2,223.5 C596.6,225.4 600.3,227.8 603.0,230.1 C605.7,232.4 607.7,234.1 609.5,237.5 C611.3,241.0 613.6,245.8 614.0,250.7 Z" fill="#f6d2b0" stroke="none" opacity="1.0"/><path d="M611.2,248.6 C610.9,252.9 608.6,259.6 607.2,263.5 C605.7,267.3 604.9,268.9 602.6,271.6 C600.3,274.4 597.2,278.3 593.2,280.1 C589.2,281.8 582.9,282.5 578.7,282.4 C574.6,282.3 571.9,281.1 568.4,279.6 C564.8,278.1 560.4,276.3 557.6,273.3 C554.7,270.3 552.8,265.5 551.3,261.6 C549.9,257.7 548.7,253.8 548.9,249.7 C549.1,245.6 550.8,240.4 552.4,236.8 C554.0,233.3 556.3,231.0 558.7,228.3 C561.2,225.7 563.9,222.6 567.3,220.9 C570.8,219.3 575.6,218.7 579.6,218.4 C583.6,218.1 587.5,217.7 591.3,219.1 C595.1,220.4 599.3,223.5 602.3,226.6 C605.3,229.7 607.6,234.1 609.1,237.8 C610.6,241.5 611.6,244.4 611.2,248.6 Z" fill="none" stroke="#2a2a2a" stroke-width="3.4" stroke-linecap="round" stroke-linejoin="round"/><path d="M612.1,247.9 C612.0,252.0 609.1,257.5 607.7,261.5 C606.2,265.6 605.7,269.1 603.4,272.3 C601.1,275.6 597.7,279.7 593.8,281.0 C589.8,282.4 583.8,280.8 579.5,280.6 C575.2,280.4 571.4,281.3 568.0,279.8 C564.6,278.3 561.8,274.3 559.0,271.7 C556.3,269.0 553.1,267.3 551.5,263.8 C549.9,260.2 549.4,255.1 549.5,250.5 C549.6,245.9 550.8,239.9 552.0,236.1 C553.2,232.3 554.3,230.7 556.8,227.9 C559.4,225.0 563.9,220.3 567.4,218.9 C571.0,217.4 574.2,219.0 578.0,219.4 C581.8,219.7 586.1,219.7 590.2,220.9 C594.4,222.2 599.9,224.1 602.9,226.9 C605.9,229.6 606.7,234.0 608.3,237.5 C609.8,241.0 612.2,243.9 612.1,247.9 Z" fill="none" stroke="#2a2a2a" stroke-width="1.9" stroke-linecap="round" opacity="0.45"/><path d="M551.1,250.1 C548.5,248.6 553.6,231.2 558.2,225.3 C562.9,219.4 572.0,215.3 578.9,214.8 C585.9,214.3 594.3,217.1 599.8,222.3 C605.3,227.5 612.0,243.6 612.1,245.9 C612.2,248.2 606.8,238.1 600.5,236.1 C594.2,234.2 582.5,231.9 574.3,234.3 C566.1,236.6 553.8,251.6 551.1,250.1 Z" fill="#c0a060" stroke="none" opacity="1.0"/><path d="M549.1,246.4 C546.2,245.4 550.3,229.8 554.6,224.5 C558.9,219.1 567.5,215.1 574.9,214.3 C582.3,213.4 593.3,214.6 599.2,219.4 C605.1,224.2 610.6,240.6 610.1,242.9 C609.7,245.2 602.7,235.0 596.5,233.0 C590.2,230.9 580.4,228.5 572.5,230.7 C564.6,233.0 552.1,247.4 549.1,246.4 Z" fill="none" stroke="#2a2a2a" stroke-width="3.0" stroke-linecap="round" stroke-linejoin="round"/><path d="M550.2,245.6 C547.1,244.5 549.7,229.1 553.6,224.0 C557.6,219.0 566.2,216.0 573.8,215.3 C581.4,214.7 593.2,215.5 599.3,220.2 C605.5,224.9 610.9,241.2 610.6,243.6 C610.2,245.9 603.5,236.3 597.2,234.2 C590.8,232.1 580.3,229.2 572.5,231.1 C564.6,233.0 553.4,246.8 550.2,245.6 Z" fill="none" stroke="#2a2a2a" stroke-width="1.7" stroke-linecap="round" opacity="0.45"/><circle cx="568.5" cy="251.5" r="3.5" fill="#2a2a2a"/><circle cx="590.6" cy="252.1" r="3.5" fill="#2a2a2a"/><path d="M570.6,266.7 C571.9,268.2 575.6,275.4 578.8,275.7 C582.0,275.9 587.9,269.4 589.7,268.2 " fill="none" stroke="#2a2a2a" stroke-width="2.8" stroke-linecap="round" stroke-linejoin="round"/><path d="M568.4,266.4 C570.3,267.7 575.9,273.8 579.6,274.2 C583.3,274.5 588.6,269.4 590.4,268.5 " fill="none" stroke="#2a2a2a" stroke-width="1.5" stroke-linecap="round" opacity="0.45"/><path d="M756.6,334.0 C756.4,337.9 755.3,349.9 755.0,357.3 C754.6,364.7 754.4,374.8 754.3,378.4 " fill="none" stroke="#2a2a2a" stroke-width="3.4" stroke-linecap="round" stroke-linejoin="round"/><path d="M756.0,334.3 C755.8,338.2 755.0,350.0 754.8,357.4 C754.6,364.8 754.8,375.1 754.8,378.7 " fill="none" stroke="#2a2a2a" stroke-width="1.9" stroke-linecap="round" opacity="0.45"/><path d="M784.2,335.7 C784.2,339.1 784.1,349.3 784.2,356.2 C784.2,363.0 784.6,373.4 784.7,376.8 " fill="none" stroke="#2a2a2a" stroke-width="3.4" stroke-linecap="round" stroke-linejoin="round"/><path d="M782.2,334.0 C782.5,337.7 783.4,348.4 783.8,355.9 C784.3,363.3 784.5,374.7 784.7,378.5 " fill="none" stroke="#2a2a2a" stroke-width="1.9" stroke-linecap="round" opacity="0.45"/><path d="M761.3,286.2 C766.3,283.2 768.7,287.9 772.7,287.6 C776.7,287.3 779.9,281.5 785.2,284.5 C790.4,287.4 801.0,300.3 804.2,305.4 C807.4,310.5 804.7,311.3 804.2,315.1 C803.8,318.9 804.7,322.6 801.6,328.2 C798.5,333.8 790.3,345.6 785.7,348.7 C781.1,351.7 778.3,346.8 774.1,346.5 C770.0,346.3 765.8,350.1 760.7,347.1 C755.6,344.1 746.4,333.5 743.3,328.7 C740.2,323.8 742.4,321.8 742.3,317.9 C742.2,314.1 739.5,310.7 742.7,305.4 C745.8,300.1 756.2,289.1 761.3,286.2 Z" fill="#8ccbf2" stroke="none" opacity="1.0"/><path d="M757.1,285.1 C762.1,281.8 765.4,283.1 769.5,283.0 C773.6,282.9 776.6,281.4 781.7,284.5 C786.8,287.5 797.1,296.5 800.1,301.4 C803.1,306.3 799.6,309.6 799.7,314.1 C799.8,318.6 803.2,323.2 800.4,328.2 C797.6,333.2 788.0,341.5 782.9,344.2 C777.7,346.9 774.1,344.4 769.8,344.4 C765.5,344.5 762.3,347.3 757.2,344.4 C752.1,341.4 742.2,331.4 739.1,326.6 C736.1,321.8 738.8,319.4 738.9,315.5 C739.0,311.5 736.7,308.0 739.7,302.9 C742.8,297.9 752.2,288.4 757.1,285.1 Z" fill="none" stroke="#2a2a2a" stroke-width="3.4" stroke-linecap="round" stroke-linejoin="round"/><path d="M757.1,284.0 C762.2,280.9 764.8,282.5 769.1,282.5 C773.4,282.6 777.7,281.3 782.8,284.4 C787.8,287.5 796.7,296.6 799.5,301.3 C802.3,306.1 799.2,308.8 799.6,313.0 C800.0,317.1 805.1,321.0 802.0,326.3 C799.0,331.6 786.8,341.4 781.2,344.6 C775.6,347.8 772.7,345.2 768.6,345.6 C764.6,345.9 761.6,349.9 756.7,346.7 C751.8,343.6 742.1,332.1 739.2,326.7 C736.4,321.3 739.5,318.5 739.4,314.2 C739.4,309.9 735.8,305.8 738.7,300.7 C741.7,295.7 752.1,287.0 757.1,284.0 Z" fill="none" stroke="#2a2a2a" stroke-width="1.9" stroke-linecap="round" opacity="0.45"/><path d="M738.5,300.2 C737.4,303.1 734.3,311.9 731.8,317.7 C729.3,323.4 724.8,331.9 723.4,334.8 " fill="none" stroke="#2a2a2a" stroke-width="3.4" stroke-linecap="round" stroke-linejoin="round"/><path d="M739.0,300.0 C737.4,303.0 732.0,312.2 729.4,317.9 C726.9,323.7 724.5,331.6 723.5,334.4 " fill="none" stroke="#2a2a2a" stroke-width="1.9" stroke-linecap="round" opacity="0.45"/><path d="M800.6,299.2 C802.0,302.1 805.8,310.9 808.8,317.0 C811.7,323.1 816.6,332.8 818.2,335.9 " fill="none" stroke="#2a2a2a" stroke-width="3.4" stroke-linecap="round" stroke-linejoin="round"/><path d="M801.9,299.8 C803.1,302.9 806.5,312.5 809.1,318.4 C811.7,324.2 815.9,332.0 817.3,334.8 " fill="none" stroke="#2a2a2a" stroke-width="1.9" stroke-linecap="round" opacity="0.45"/><path d="M803.9,252.0 C804.3,256.1 803.0,258.8 801.4,262.4 C799.8,266.1 796.5,270.4 794.1,273.9 C791.7,277.3 790.5,281.5 787.0,283.1 C783.6,284.6 778.2,283.7 773.6,283.2 C768.9,282.8 763.2,281.4 759.2,280.3 C755.2,279.2 752.0,279.3 749.4,276.7 C746.9,274.1 745.1,268.7 743.8,264.4 C742.4,260.2 741.3,255.2 741.2,251.4 C741.2,247.5 742.0,244.9 743.5,241.3 C745.1,237.6 747.8,232.2 750.4,229.3 C753.0,226.4 755.1,225.3 759.0,223.9 C762.8,222.6 769.1,221.7 773.5,221.3 C777.8,221.0 781.5,220.8 785.0,222.0 C788.5,223.3 792.2,226.1 794.5,228.7 C796.8,231.4 797.3,233.9 798.8,237.8 C800.4,241.6 803.5,247.9 803.9,252.0 Z" fill="#f6d2b0" stroke="none" opacity="1.0"/><path d="M800.8,250.5 C800.9,254.8 799.0,259.0 797.6,262.5 C796.2,266.0 794.7,268.3 792.3,271.3 C789.9,274.2 786.9,278.3 783.2,280.2 C779.4,282.1 773.9,282.6 769.8,282.6 C765.6,282.6 761.9,282.2 758.2,280.4 C754.5,278.6 750.4,274.8 747.7,271.8 C745.1,268.8 743.8,265.8 742.3,262.5 C740.8,259.1 738.7,255.9 738.7,251.8 C738.8,247.8 740.7,242.4 742.4,238.0 C744.1,233.6 746.2,228.4 748.8,225.6 C751.5,222.7 754.5,222.5 758.3,221.0 C762.1,219.6 767.9,217.1 771.7,216.9 C775.6,216.7 778.0,217.9 781.3,219.7 C784.6,221.6 789.1,225.0 791.7,227.9 C794.3,230.7 795.5,233.1 797.0,236.9 C798.5,240.7 800.7,246.2 800.8,250.5 Z" fill="none" stroke="#2a2a2a" stroke-width="3.4" stroke-linecap="round" stroke-linejoin="round"/><path d="M801.9,249.2 C802.4,253.0 801.3,257.6 799.9,261.2 C798.4,264.8 795.9,267.8 793.2,270.8 C790.4,273.8 786.8,277.3 783.1,278.9 C779.4,280.6 775.1,280.5 771.1,280.6 C767.0,280.7 762.9,280.9 758.8,279.5 C754.8,278.1 750.0,275.2 746.8,272.4 C743.7,269.6 741.1,265.9 739.8,262.6 C738.4,259.3 738.5,256.8 738.9,252.4 C739.2,248.1 740.4,240.8 741.9,236.8 C743.4,232.8 745.5,231.0 748.1,228.3 C750.6,225.6 753.2,222.3 757.2,220.6 C761.1,218.8 767.7,217.7 771.6,217.6 C775.5,217.5 777.4,218.2 780.6,220.0 C783.8,221.9 788.3,225.6 791.0,228.6 C793.7,231.5 794.9,234.4 796.7,237.8 C798.5,241.2 801.4,245.3 801.9,249.2 Z" fill="none" stroke="#2a2a2a" stroke-width="1.9" stroke-linecap="round" opacity="0.45"/><path d="M741.5,249.3 C738.1,248.0 742.7,231.5 746.9,226.2 C751.0,220.8 758.9,217.8 766.4,217.2 C774.0,216.6 786.3,217.7 792.2,222.5 C798.1,227.3 802.1,244.0 801.8,246.0 C801.4,247.9 795.9,236.3 790.1,234.3 C784.3,232.4 775.3,231.6 767.2,234.1 C759.1,236.6 744.9,250.6 741.5,249.3 Z" fill="#5a3b22" stroke="none" opacity="1.0"/><path d="M739.4,246.6 C736.2,245.6 740.3,229.6 744.4,224.2 C748.5,218.8 756.7,214.9 764.2,214.2 C771.7,213.4 783.0,214.9 789.1,219.7 C795.3,224.5 801.4,240.9 801.1,243.0 C800.8,245.1 793.5,234.1 787.2,232.1 C781.0,230.0 771.5,228.1 763.5,230.5 C755.5,233.0 742.6,247.7 739.4,246.6 Z" fill="none" stroke="#2a2a2a" stroke-width="3.0" stroke-linecap="round" stroke-linejoin="round"/><path d="M739.1,246.0 C736.0,244.8 739.4,229.9 743.8,224.5 C748.2,219.2 758.2,214.8 765.6,214.0 C773.0,213.1 782.4,214.6 788.1,219.4 C793.7,224.2 799.7,240.3 799.4,242.7 C799.0,245.2 792.3,235.9 786.1,234.0 C779.9,232.2 770.1,229.8 762.3,231.8 C754.4,233.8 742.2,247.2 739.1,246.0 Z" fill="none" stroke="#2a2a2a" stroke-width="1.7" stroke-linecap="round" opacity="0.45"/><path d="M744.2,255.1 C743.2,256.6 744.0,269.3 746.5,275.0 C748.9,280.8 754.8,286.1 759.0,289.5 C763.3,293.0 767.4,295.7 771.8,295.9 C776.3,296.0 781.3,294.0 785.9,290.5 C790.6,287.0 796.8,280.9 799.6,274.8 C802.5,268.8 804.3,255.9 803.0,254.3 C801.8,252.7 796.0,264.1 792.0,265.2 C788.1,266.2 782.7,261.1 779.5,260.8 C776.2,260.6 774.6,263.3 772.5,263.5 C770.4,263.6 770.4,261.4 767.0,261.8 C763.6,262.2 755.9,266.9 752.1,265.8 C748.2,264.7 745.1,253.6 744.2,255.1 Z" fill="#5a3b22" stroke="none" opacity="1.0"/><path d="M740.6,251.8 C739.5,253.8 741.2,267.8 743.9,274.2 C746.7,280.6 752.6,286.8 756.9,290.0 C761.3,293.2 765.8,293.4 770.0,293.4 C774.3,293.4 778.4,293.0 782.6,289.8 C786.8,286.5 792.5,280.2 795.5,274.0 C798.4,267.8 800.9,254.3 800.2,252.6 C799.4,250.8 795.0,262.1 791.0,263.5 C786.9,264.9 779.6,261.1 776.0,260.9 C772.4,260.7 771.4,262.5 769.3,262.3 C767.1,262.2 766.3,260.0 763.2,260.0 C760.1,260.1 754.4,263.9 750.6,262.5 C746.8,261.2 741.7,249.9 740.6,251.8 Z" fill="none" stroke="#2a2a2a" stroke-width="3.0" stroke-linecap="round" stroke-linejoin="round"/><path d="M741.4,250.9 C740.3,252.7 741.1,267.7 743.8,273.9 C746.5,280.1 753.3,284.7 757.6,288.1 C761.9,291.5 765.5,294.0 769.5,294.4 C773.5,294.7 777.4,293.3 781.7,290.0 C786.1,286.8 792.7,281.2 795.7,274.7 C798.8,268.2 800.8,253.0 800.1,251.2 C799.5,249.4 795.7,262.5 791.8,263.9 C787.8,265.4 779.9,260.1 776.3,259.7 C772.7,259.3 772.1,261.6 770.1,261.7 C768.1,261.9 767.4,260.6 764.1,260.9 C760.8,261.1 754.2,265.0 750.4,263.4 C746.6,261.7 742.5,249.2 741.4,250.9 Z" fill="none" stroke="#2a2a2a" stroke-width="1.7" stroke-linecap="round" opacity="0.45"/><circle cx="758.5" cy="251.5" r="3.5" fill="#2a2a2a"/><circle cx="781.6" cy="251.4" r="3.5" fill="#2a2a2a"/><path d="M759.8,266.9 C761.4,268.3 766.6,274.8 769.9,275.0 C773.1,275.2 777.8,269.3 779.4,268.2 " fill="none" stroke="#fff3d6" stroke-width="2.8" stroke-linecap="round" stroke-linejoin="round"/><path d="M761.0,266.1 C762.2,268.0 765.6,276.7 768.6,277.0 C771.7,277.4 777.5,269.8 779.3,268.3 " fill="none" stroke="#fff3d6" stroke-width="1.5" stroke-linecap="round" opacity="0.45"/><path d="M767.5,251.6 C767.3,252.8 767.6,254.6 767.5,255.7 C767.3,256.8 767.5,257.4 766.7,258.0 C765.8,258.6 763.6,259.1 762.4,259.4 C761.3,259.6 761.1,259.7 759.9,259.8 C758.6,259.8 756.2,260.1 755.0,259.8 C753.7,259.5 753.2,258.8 752.4,258.2 C751.6,257.6 750.4,257.2 750.1,256.1 C749.7,255.0 749.9,252.7 750.1,251.5 C750.3,250.3 750.8,249.7 751.3,248.9 C751.9,248.0 752.7,247.5 753.4,246.5 C754.1,245.6 754.4,243.5 755.3,243.1 C756.2,242.8 757.6,244.2 758.7,244.4 C759.8,244.5 761.1,243.7 762.1,243.8 C763.0,243.9 763.4,244.4 764.5,245.2 C765.6,246.0 768.1,247.5 768.6,248.5 C769.1,249.6 767.6,250.4 767.5,251.6 Z" fill="none" stroke="#2a2a2a" stroke-width="2.6" stroke-linecap="round" stroke-linejoin="round"/><path d="M790.6,250.5 C790.4,251.5 789.7,253.3 789.1,254.5 C788.4,255.7 787.7,257.1 786.7,257.8 C785.8,258.6 784.3,258.8 783.4,259.0 C782.4,259.3 781.7,259.3 780.9,259.4 C780.0,259.5 779.4,259.8 778.3,259.4 C777.3,258.9 775.3,257.2 774.4,256.6 C773.5,256.0 773.3,256.4 772.9,255.7 C772.5,255.1 772.5,253.9 772.2,252.7 C772.0,251.4 771.1,249.3 771.5,248.2 C771.9,247.1 773.4,247.0 774.5,246.2 C775.6,245.3 776.9,243.4 778.0,242.9 C779.1,242.4 779.9,242.7 781.1,243.0 C782.2,243.4 783.6,244.4 784.9,245.0 C786.2,245.6 788.0,246.0 788.8,246.6 C789.7,247.1 789.5,247.5 789.8,248.2 C790.1,248.8 790.7,249.4 790.6,250.5 Z" fill="none" stroke="#2a2a2a" stroke-width="2.6" stroke-linecap="round" stroke-linejoin="round"/><path d="M768.2,251.1 C768.5,251.3 769.4,252.4 769.8,252.4 C770.3,252.5 770.6,251.4 770.8,251.2 " fill="none" stroke="#2a2a2a" stroke-width="2.6" stroke-linecap="round" stroke-linejoin="round"/><path d="M69.0,412.7 C134.1,411.1 326.3,410.7 453.9,410.3 C581.6,409.9 769.9,408.8 834.8,410.3 C899.8,411.8 842.5,417.2 843.5,419.5 C844.5,421.8 840.8,422.1 840.8,424.0 C840.9,425.9 844.6,428.9 843.7,431.2 C842.8,433.5 900.7,436.5 835.2,437.7 C769.7,438.9 579.0,438.3 451.0,438.5 C322.9,438.7 131.5,439.7 66.7,438.7 C1.9,437.8 63.1,435.4 62.3,433.0 C61.5,430.6 61.7,426.5 61.9,424.3 C62.1,422.1 62.4,421.9 63.6,419.9 C64.8,418.0 3.9,414.3 69.0,412.7 Z" fill="#d9b382" stroke="none" opacity="1.0"/><path d="M66.5,409.8 C131.8,408.8 323.0,409.2 451.0,409.1 C579.1,409.0 770.1,408.2 835.0,409.4 C899.8,410.6 839.7,413.9 840.4,416.4 C841.1,418.8 839.3,421.7 839.1,424.0 C839.0,426.3 840.6,428.2 839.6,430.1 C838.6,432.0 898.1,434.5 833.3,435.4 C768.4,436.3 578.1,435.7 450.3,435.6 C322.4,435.5 131.3,435.8 66.1,435.0 C0.9,434.1 60.3,432.5 59.2,430.5 C58.1,428.5 59.6,425.7 59.6,423.1 C59.6,420.5 58.3,417.2 59.4,415.0 C60.6,412.7 1.2,410.8 66.5,409.8 Z" fill="none" stroke="#2a2a2a" stroke-width="3.4" stroke-linecap="round" stroke-linejoin="round"/><path d="M65.7,411.0 C130.4,409.9 320.1,409.2 448.3,409.0 C576.6,408.9 770.0,408.9 835.3,410.1 C900.7,411.3 840.0,413.7 840.6,416.0 C841.1,418.4 838.8,421.8 838.7,424.3 C838.5,426.7 840.5,428.7 839.6,430.8 C838.6,432.9 897.7,435.8 832.8,436.8 C768.0,437.8 578.4,437.0 450.5,437.1 C322.5,437.1 130.3,438.4 65.1,437.2 C-0.1,435.9 60.1,432.0 59.5,429.5 C58.8,427.0 60.9,424.5 61.1,422.3 C61.2,420.0 59.6,418.0 60.4,416.2 C61.1,414.3 1.1,412.2 65.7,411.0 Z" fill="none" stroke="#2a2a2a" stroke-width="1.9" stroke-linecap="round" opacity="0.45"/><path d="M401.8,352.6 C411.8,351.4 434.5,353.3 451.5,353.4 C468.6,353.5 493.8,352.2 504.2,353.3 C514.7,354.4 512.6,356.4 514.3,360.2 C515.9,364.0 514.7,370.4 514.1,376.1 C513.5,381.8 512.3,389.7 510.7,394.2 C509.1,398.7 513.9,401.5 504.4,403.0 C494.8,404.4 470.7,403.0 453.5,402.9 C436.3,402.7 411.4,403.9 401.1,402.3 C390.9,400.7 393.1,397.9 391.9,393.5 C390.7,389.0 394.0,381.2 393.9,375.7 C393.8,370.2 389.9,364.5 391.2,360.6 C392.6,356.8 391.7,353.8 401.8,352.6 Z" fill="#fffdf6" stroke="none" opacity="1.0"/><path d="M398.6,349.5 C408.5,347.9 432.3,348.8 449.7,349.0 C467.2,349.2 493.2,348.9 503.1,350.5 C513.0,352.2 508.3,354.9 509.3,358.9 C510.3,362.9 508.9,369.0 509.0,374.5 C509.0,380.1 510.5,387.7 509.4,392.2 C508.4,396.6 512.8,399.7 502.7,401.1 C492.6,402.4 466.3,400.4 448.8,400.2 C431.4,400.0 408.1,400.9 398.1,399.6 C388.1,398.4 390.1,396.7 388.8,392.6 C387.6,388.5 390.4,380.6 390.6,375.0 C390.8,369.3 388.9,362.8 390.3,358.6 C391.6,354.3 388.7,351.1 398.6,349.5 Z" fill="none" stroke="#2a2a2a" stroke-width="3.4" stroke-linecap="round" stroke-linejoin="round"/><path d="M397.6,351.6 C407.4,350.4 431.4,348.7 448.5,348.6 C465.7,348.6 490.1,349.7 500.7,351.3 C511.2,352.8 509.9,354.0 511.6,358.1 C513.3,362.2 511.3,370.2 511.1,375.9 C510.8,381.6 511.8,388.5 510.3,392.5 C508.7,396.5 511.7,398.3 501.9,399.7 C492.0,401.1 468.2,401.1 451.0,400.9 C433.8,400.7 408.8,399.7 398.5,398.4 C388.2,397.2 390.9,397.3 389.3,393.2 C387.7,389.1 389.0,379.8 389.1,373.6 C389.2,367.5 388.6,360.0 390.0,356.4 C391.4,352.7 387.9,352.9 397.6,351.6 Z" fill="none" stroke="#2a2a2a" stroke-width="1.9" stroke-linecap="round" opacity="0.45"/><path d="M375.8,417.7 L527.3,419.6 L510.9,405.6 L394.1,404.1 Z" fill="#dedad0" stroke="none"/><path d="M373.7,415.5 C380.1,415.7 399.5,416.6 412.3,416.6 C425.1,416.5 437.8,415.3 450.3,415.2 C462.8,415.1 474.7,415.9 487.3,415.8 C499.9,415.8 519.4,415.1 525.8,414.9 " fill="none" stroke="#2a2a2a" stroke-width="3.0" stroke-linecap="round" stroke-linejoin="round"/><path d="M375.2,414.5 C381.6,414.9 401.0,416.8 413.4,416.8 C425.8,416.8 436.8,414.9 449.4,414.7 C462.0,414.6 476.4,415.9 489.1,415.9 C501.8,415.9 519.6,415.0 525.6,414.9 " fill="none" stroke="#2a2a2a" stroke-width="1.7" stroke-linecap="round" opacity="0.45"/><path d="M526.0,415.5 C524.5,414.6 520.0,411.9 517.3,409.6 C514.7,407.4 511.4,403.5 510.3,402.3 " fill="none" stroke="#2a2a2a" stroke-width="3.0" stroke-linecap="round" stroke-linejoin="round"/><path d="M527.1,414.7 C525.5,413.6 520.3,410.6 517.3,408.4 C514.4,406.2 510.8,402.6 509.5,401.5 " fill="none" stroke="#2a2a2a" stroke-width="1.7" stroke-linecap="round" opacity="0.45"/><path d="M508.9,402.4 C502.2,402.2 482.0,401.4 468.9,401.2 C455.9,401.0 444.0,401.0 430.7,401.2 C417.4,401.4 396.0,402.1 389.1,402.3 " fill="none" stroke="#2a2a2a" stroke-width="3.0" stroke-linecap="round" stroke-linejoin="round"/><path d="M510.1,401.6 C503.5,401.6 484.3,401.5 470.9,401.4 C457.5,401.2 443.3,400.8 429.9,400.8 C416.4,400.7 396.9,401.1 390.3,401.2 " fill="none" stroke="#2a2a2a" stroke-width="1.7" stroke-linecap="round" opacity="0.45"/><path d="M389.5,401.0 C388.2,402.4 384.3,407.2 381.6,409.5 C378.8,411.9 374.4,414.2 373.0,415.2 " fill="none" stroke="#2a2a2a" stroke-width="3.0" stroke-linecap="round" stroke-linejoin="round"/><path d="M388.8,401.1 C387.9,402.1 385.7,405.3 383.1,407.5 C380.4,409.8 374.6,413.5 372.9,414.6 " fill="none" stroke="#2a2a2a" stroke-width="1.7" stroke-linecap="round" opacity="0.45"/><text x="130" y="486" font-family="'Caveat', 'Patrick Hand', cursive" font-size="26" text-anchor="middle" fill="#2a2a2a" font-weight="normal">Jesús Moreno</text><text x="320" y="486" font-family="'Caveat', 'Patrick Hand', cursive" font-size="26" text-anchor="middle" fill="#2a2a2a" font-weight="normal">Gregorio Robles</text><text x="580" y="486" font-family="'Caveat', 'Patrick Hand', cursive" font-size="26" text-anchor="middle" fill="#2a2a2a" font-weight="normal">Marcos Román</text><text x="770" y="486" font-family="'Caveat', 'Patrick Hand', cursive" font-size="26" text-anchor="middle" fill="#2a2a2a" font-weight="normal">Juan David R.</text><text x="450" y="536" font-family="'Kalam', 'Patrick Hand', cursive" font-size="32" text-anchor="middle" fill="#2a2a2a" font-weight="normal">llevar el Machine Learning al aula</text></svg>